<?xml version="1.0" encoding="utf-8" standalone="no"?>
<!DOCTYPE svg PUBLIC "-//W3C//DTD SVG 1.1//EN"
  "http://www.w3.org/Graphics/SVG/1.1/DTD/svg11.dtd">
<!-- Created with matplotlib (https://matplotlib.org/) -->
<svg height="281.073625pt" version="1.1" viewBox="0 0 391.216875 281.073625" width="391.216875pt" xmlns="http://www.w3.org/2000/svg" xmlns:xlink="http://www.w3.org/1999/xlink">
 <defs>
  <style type="text/css">
*{stroke-linecap:butt;stroke-linejoin:round;}
  </style>
 </defs>
 <g id="figure_1">
  <g id="patch_1">
   <path d="M 0 281.073625 
L 391.216875 281.073625 
L 391.216875 0 
L 0 0 
z
" style="fill:#ffffff;"/>
  </g>
  <g id="axes_1">
   <g id="patch_2">
    <path d="M 45.716875 241.58175 
L 380.516875 241.58175 
L 380.516875 24.14175 
L 45.716875 24.14175 
z
" style="fill:#e5e5e5;"/>
   </g>
   <g id="matplotlib.axis_1">
    <g id="xtick_1">
     <g id="line2d_1">
      <path clip-path="url(#p4e8e6db7cb)" d="M 104.118501 241.58175 
L 104.118501 24.14175 
" style="fill:none;stroke:#ffffff;stroke-linecap:square;stroke-width:0.8;"/>
     </g>
     <g id="line2d_2">
      <defs>
       <path d="M 0 0 
L 0 3.5 
" id="m112144d46a" style="stroke:#555555;stroke-width:0.8;"/>
      </defs>
      <g>
       <use style="fill:#555555;stroke:#555555;stroke-width:0.8;" x="104.118501" xlink:href="#m112144d46a" y="241.58175"/>
      </g>
     </g>
     <g id="text_1">
      <!-- 0.4 -->
      <defs>
       <path d="M 31.78125 66.40625 
Q 24.171875 66.40625 20.328125 58.90625 
Q 16.5 51.421875 16.5 36.375 
Q 16.5 21.390625 20.328125 13.890625 
Q 24.171875 6.390625 31.78125 6.390625 
Q 39.453125 6.390625 43.28125 13.890625 
Q 47.125 21.390625 47.125 36.375 
Q 47.125 51.421875 43.28125 58.90625 
Q 39.453125 66.40625 31.78125 66.40625 
z
M 31.78125 74.21875 
Q 44.046875 74.21875 50.515625 64.515625 
Q 56.984375 54.828125 56.984375 36.375 
Q 56.984375 17.96875 50.515625 8.265625 
Q 44.046875 -1.421875 31.78125 -1.421875 
Q 19.53125 -1.421875 13.0625 8.265625 
Q 6.59375 17.96875 6.59375 36.375 
Q 6.59375 54.828125 13.0625 64.515625 
Q 19.53125 74.21875 31.78125 74.21875 
z
" id="DejaVuSans-48"/>
       <path d="M 10.6875 12.40625 
L 21 12.40625 
L 21 0 
L 10.6875 0 
z
" id="DejaVuSans-46"/>
       <path d="M 37.796875 64.3125 
L 12.890625 25.390625 
L 37.796875 25.390625 
z
M 35.203125 72.90625 
L 47.609375 72.90625 
L 47.609375 25.390625 
L 58.015625 25.390625 
L 58.015625 17.1875 
L 47.609375 17.1875 
L 47.609375 0 
L 37.796875 0 
L 37.796875 17.1875 
L 4.890625 17.1875 
L 4.890625 26.703125 
z
" id="DejaVuSans-52"/>
      </defs>
      <g style="fill:#555555;" transform="translate(96.166938 256.180187)scale(0.1 -0.1)">
       <use xlink:href="#DejaVuSans-48"/>
       <use x="63.623047" xlink:href="#DejaVuSans-46"/>
       <use x="95.410156" xlink:href="#DejaVuSans-52"/>
      </g>
     </g>
    </g>
    <g id="xtick_2">
     <g id="line2d_3">
      <path clip-path="url(#p4e8e6db7cb)" d="M 176.438073 241.58175 
L 176.438073 24.14175 
" style="fill:none;stroke:#ffffff;stroke-linecap:square;stroke-width:0.8;"/>
     </g>
     <g id="line2d_4">
      <g>
       <use style="fill:#555555;stroke:#555555;stroke-width:0.8;" x="176.438073" xlink:href="#m112144d46a" y="241.58175"/>
      </g>
     </g>
     <g id="text_2">
      <!-- 0.6 -->
      <defs>
       <path d="M 33.015625 40.375 
Q 26.375 40.375 22.484375 35.828125 
Q 18.609375 31.296875 18.609375 23.390625 
Q 18.609375 15.53125 22.484375 10.953125 
Q 26.375 6.390625 33.015625 6.390625 
Q 39.65625 6.390625 43.53125 10.953125 
Q 47.40625 15.53125 47.40625 23.390625 
Q 47.40625 31.296875 43.53125 35.828125 
Q 39.65625 40.375 33.015625 40.375 
z
M 52.59375 71.296875 
L 52.59375 62.3125 
Q 48.875 64.0625 45.09375 64.984375 
Q 41.3125 65.921875 37.59375 65.921875 
Q 27.828125 65.921875 22.671875 59.328125 
Q 17.53125 52.734375 16.796875 39.40625 
Q 19.671875 43.65625 24.015625 45.921875 
Q 28.375 48.1875 33.59375 48.1875 
Q 44.578125 48.1875 50.953125 41.515625 
Q 57.328125 34.859375 57.328125 23.390625 
Q 57.328125 12.15625 50.6875 5.359375 
Q 44.046875 -1.421875 33.015625 -1.421875 
Q 20.359375 -1.421875 13.671875 8.265625 
Q 6.984375 17.96875 6.984375 36.375 
Q 6.984375 53.65625 15.1875 63.9375 
Q 23.390625 74.21875 37.203125 74.21875 
Q 40.921875 74.21875 44.703125 73.484375 
Q 48.484375 72.75 52.59375 71.296875 
z
" id="DejaVuSans-54"/>
      </defs>
      <g style="fill:#555555;" transform="translate(168.48651 256.180187)scale(0.1 -0.1)">
       <use xlink:href="#DejaVuSans-48"/>
       <use x="63.623047" xlink:href="#DejaVuSans-46"/>
       <use x="95.410156" xlink:href="#DejaVuSans-54"/>
      </g>
     </g>
    </g>
    <g id="xtick_3">
     <g id="line2d_5">
      <path clip-path="url(#p4e8e6db7cb)" d="M 248.757645 241.58175 
L 248.757645 24.14175 
" style="fill:none;stroke:#ffffff;stroke-linecap:square;stroke-width:0.8;"/>
     </g>
     <g id="line2d_6">
      <g>
       <use style="fill:#555555;stroke:#555555;stroke-width:0.8;" x="248.757645" xlink:href="#m112144d46a" y="241.58175"/>
      </g>
     </g>
     <g id="text_3">
      <!-- 0.8 -->
      <defs>
       <path d="M 31.78125 34.625 
Q 24.75 34.625 20.71875 30.859375 
Q 16.703125 27.09375 16.703125 20.515625 
Q 16.703125 13.921875 20.71875 10.15625 
Q 24.75 6.390625 31.78125 6.390625 
Q 38.8125 6.390625 42.859375 10.171875 
Q 46.921875 13.96875 46.921875 20.515625 
Q 46.921875 27.09375 42.890625 30.859375 
Q 38.875 34.625 31.78125 34.625 
z
M 21.921875 38.8125 
Q 15.578125 40.375 12.03125 44.71875 
Q 8.5 49.078125 8.5 55.328125 
Q 8.5 64.0625 14.71875 69.140625 
Q 20.953125 74.21875 31.78125 74.21875 
Q 42.671875 74.21875 48.875 69.140625 
Q 55.078125 64.0625 55.078125 55.328125 
Q 55.078125 49.078125 51.53125 44.71875 
Q 48 40.375 41.703125 38.8125 
Q 48.828125 37.15625 52.796875 32.3125 
Q 56.78125 27.484375 56.78125 20.515625 
Q 56.78125 9.90625 50.3125 4.234375 
Q 43.84375 -1.421875 31.78125 -1.421875 
Q 19.734375 -1.421875 13.25 4.234375 
Q 6.78125 9.90625 6.78125 20.515625 
Q 6.78125 27.484375 10.78125 32.3125 
Q 14.796875 37.15625 21.921875 38.8125 
z
M 18.3125 54.390625 
Q 18.3125 48.734375 21.84375 45.5625 
Q 25.390625 42.390625 31.78125 42.390625 
Q 38.140625 42.390625 41.71875 45.5625 
Q 45.3125 48.734375 45.3125 54.390625 
Q 45.3125 60.0625 41.71875 63.234375 
Q 38.140625 66.40625 31.78125 66.40625 
Q 25.390625 66.40625 21.84375 63.234375 
Q 18.3125 60.0625 18.3125 54.390625 
z
" id="DejaVuSans-56"/>
      </defs>
      <g style="fill:#555555;" transform="translate(240.806083 256.180187)scale(0.1 -0.1)">
       <use xlink:href="#DejaVuSans-48"/>
       <use x="63.623047" xlink:href="#DejaVuSans-46"/>
       <use x="95.410156" xlink:href="#DejaVuSans-56"/>
      </g>
     </g>
    </g>
    <g id="xtick_4">
     <g id="line2d_7">
      <path clip-path="url(#p4e8e6db7cb)" d="M 321.077217 241.58175 
L 321.077217 24.14175 
" style="fill:none;stroke:#ffffff;stroke-linecap:square;stroke-width:0.8;"/>
     </g>
     <g id="line2d_8">
      <g>
       <use style="fill:#555555;stroke:#555555;stroke-width:0.8;" x="321.077217" xlink:href="#m112144d46a" y="241.58175"/>
      </g>
     </g>
     <g id="text_4">
      <!-- 1.0 -->
      <defs>
       <path d="M 12.40625 8.296875 
L 28.515625 8.296875 
L 28.515625 63.921875 
L 10.984375 60.40625 
L 10.984375 69.390625 
L 28.421875 72.90625 
L 38.28125 72.90625 
L 38.28125 8.296875 
L 54.390625 8.296875 
L 54.390625 0 
L 12.40625 0 
z
" id="DejaVuSans-49"/>
      </defs>
      <g style="fill:#555555;" transform="translate(313.125655 256.180187)scale(0.1 -0.1)">
       <use xlink:href="#DejaVuSans-49"/>
       <use x="63.623047" xlink:href="#DejaVuSans-46"/>
       <use x="95.410156" xlink:href="#DejaVuSans-48"/>
      </g>
     </g>
    </g>
    <g id="text_5">
     <!-- Last manager evaluation -->
     <defs>
      <path d="M 9.8125 72.90625 
L 19.671875 72.90625 
L 19.671875 8.296875 
L 55.171875 8.296875 
L 55.171875 0 
L 9.8125 0 
z
" id="DejaVuSans-76"/>
      <path d="M 34.28125 27.484375 
Q 23.390625 27.484375 19.1875 25 
Q 14.984375 22.515625 14.984375 16.5 
Q 14.984375 11.71875 18.140625 8.90625 
Q 21.296875 6.109375 26.703125 6.109375 
Q 34.1875 6.109375 38.703125 11.40625 
Q 43.21875 16.703125 43.21875 25.484375 
L 43.21875 27.484375 
z
M 52.203125 31.203125 
L 52.203125 0 
L 43.21875 0 
L 43.21875 8.296875 
Q 40.140625 3.328125 35.546875 0.953125 
Q 30.953125 -1.421875 24.3125 -1.421875 
Q 15.921875 -1.421875 10.953125 3.296875 
Q 6 8.015625 6 15.921875 
Q 6 25.140625 12.171875 29.828125 
Q 18.359375 34.515625 30.609375 34.515625 
L 43.21875 34.515625 
L 43.21875 35.40625 
Q 43.21875 41.609375 39.140625 45 
Q 35.0625 48.390625 27.6875 48.390625 
Q 23 48.390625 18.546875 47.265625 
Q 14.109375 46.140625 10.015625 43.890625 
L 10.015625 52.203125 
Q 14.9375 54.109375 19.578125 55.046875 
Q 24.21875 56 28.609375 56 
Q 40.484375 56 46.34375 49.84375 
Q 52.203125 43.703125 52.203125 31.203125 
z
" id="DejaVuSans-97"/>
      <path d="M 44.28125 53.078125 
L 44.28125 44.578125 
Q 40.484375 46.53125 36.375 47.5 
Q 32.28125 48.484375 27.875 48.484375 
Q 21.1875 48.484375 17.84375 46.4375 
Q 14.5 44.390625 14.5 40.28125 
Q 14.5 37.15625 16.890625 35.375 
Q 19.28125 33.59375 26.515625 31.984375 
L 29.59375 31.296875 
Q 39.15625 29.25 43.1875 25.515625 
Q 47.21875 21.78125 47.21875 15.09375 
Q 47.21875 7.46875 41.1875 3.015625 
Q 35.15625 -1.421875 24.609375 -1.421875 
Q 20.21875 -1.421875 15.453125 -0.5625 
Q 10.6875 0.296875 5.421875 2 
L 5.421875 11.28125 
Q 10.40625 8.6875 15.234375 7.390625 
Q 20.0625 6.109375 24.8125 6.109375 
Q 31.15625 6.109375 34.5625 8.28125 
Q 37.984375 10.453125 37.984375 14.40625 
Q 37.984375 18.0625 35.515625 20.015625 
Q 33.0625 21.96875 24.703125 23.78125 
L 21.578125 24.515625 
Q 13.234375 26.265625 9.515625 29.90625 
Q 5.8125 33.546875 5.8125 39.890625 
Q 5.8125 47.609375 11.28125 51.796875 
Q 16.75 56 26.8125 56 
Q 31.78125 56 36.171875 55.265625 
Q 40.578125 54.546875 44.28125 53.078125 
z
" id="DejaVuSans-115"/>
      <path d="M 18.3125 70.21875 
L 18.3125 54.6875 
L 36.8125 54.6875 
L 36.8125 47.703125 
L 18.3125 47.703125 
L 18.3125 18.015625 
Q 18.3125 11.328125 20.140625 9.421875 
Q 21.96875 7.515625 27.59375 7.515625 
L 36.8125 7.515625 
L 36.8125 0 
L 27.59375 0 
Q 17.1875 0 13.234375 3.875 
Q 9.28125 7.765625 9.28125 18.015625 
L 9.28125 47.703125 
L 2.6875 47.703125 
L 2.6875 54.6875 
L 9.28125 54.6875 
L 9.28125 70.21875 
z
" id="DejaVuSans-116"/>
      <path id="DejaVuSans-32"/>
      <path d="M 52 44.1875 
Q 55.375 50.25 60.0625 53.125 
Q 64.75 56 71.09375 56 
Q 79.640625 56 84.28125 50.015625 
Q 88.921875 44.046875 88.921875 33.015625 
L 88.921875 0 
L 79.890625 0 
L 79.890625 32.71875 
Q 79.890625 40.578125 77.09375 44.375 
Q 74.3125 48.1875 68.609375 48.1875 
Q 61.625 48.1875 57.5625 43.546875 
Q 53.515625 38.921875 53.515625 30.90625 
L 53.515625 0 
L 44.484375 0 
L 44.484375 32.71875 
Q 44.484375 40.625 41.703125 44.40625 
Q 38.921875 48.1875 33.109375 48.1875 
Q 26.21875 48.1875 22.15625 43.53125 
Q 18.109375 38.875 18.109375 30.90625 
L 18.109375 0 
L 9.078125 0 
L 9.078125 54.6875 
L 18.109375 54.6875 
L 18.109375 46.1875 
Q 21.1875 51.21875 25.484375 53.609375 
Q 29.78125 56 35.6875 56 
Q 41.65625 56 45.828125 52.96875 
Q 50 49.953125 52 44.1875 
z
" id="DejaVuSans-109"/>
      <path d="M 54.890625 33.015625 
L 54.890625 0 
L 45.90625 0 
L 45.90625 32.71875 
Q 45.90625 40.484375 42.875 44.328125 
Q 39.84375 48.1875 33.796875 48.1875 
Q 26.515625 48.1875 22.3125 43.546875 
Q 18.109375 38.921875 18.109375 30.90625 
L 18.109375 0 
L 9.078125 0 
L 9.078125 54.6875 
L 18.109375 54.6875 
L 18.109375 46.1875 
Q 21.34375 51.125 25.703125 53.5625 
Q 30.078125 56 35.796875 56 
Q 45.21875 56 50.046875 50.171875 
Q 54.890625 44.34375 54.890625 33.015625 
z
" id="DejaVuSans-110"/>
      <path d="M 45.40625 27.984375 
Q 45.40625 37.75 41.375 43.109375 
Q 37.359375 48.484375 30.078125 48.484375 
Q 22.859375 48.484375 18.828125 43.109375 
Q 14.796875 37.75 14.796875 27.984375 
Q 14.796875 18.265625 18.828125 12.890625 
Q 22.859375 7.515625 30.078125 7.515625 
Q 37.359375 7.515625 41.375 12.890625 
Q 45.40625 18.265625 45.40625 27.984375 
z
M 54.390625 6.78125 
Q 54.390625 -7.171875 48.1875 -13.984375 
Q 42 -20.796875 29.203125 -20.796875 
Q 24.46875 -20.796875 20.265625 -20.09375 
Q 16.0625 -19.390625 12.109375 -17.921875 
L 12.109375 -9.1875 
Q 16.0625 -11.328125 19.921875 -12.34375 
Q 23.78125 -13.375 27.78125 -13.375 
Q 36.625 -13.375 41.015625 -8.765625 
Q 45.40625 -4.15625 45.40625 5.171875 
L 45.40625 9.625 
Q 42.625 4.78125 38.28125 2.390625 
Q 33.9375 0 27.875 0 
Q 17.828125 0 11.671875 7.65625 
Q 5.515625 15.328125 5.515625 27.984375 
Q 5.515625 40.671875 11.671875 48.328125 
Q 17.828125 56 27.875 56 
Q 33.9375 56 38.28125 53.609375 
Q 42.625 51.21875 45.40625 46.390625 
L 45.40625 54.6875 
L 54.390625 54.6875 
z
" id="DejaVuSans-103"/>
      <path d="M 56.203125 29.59375 
L 56.203125 25.203125 
L 14.890625 25.203125 
Q 15.484375 15.921875 20.484375 11.0625 
Q 25.484375 6.203125 34.421875 6.203125 
Q 39.59375 6.203125 44.453125 7.46875 
Q 49.3125 8.734375 54.109375 11.28125 
L 54.109375 2.78125 
Q 49.265625 0.734375 44.1875 -0.34375 
Q 39.109375 -1.421875 33.890625 -1.421875 
Q 20.796875 -1.421875 13.15625 6.1875 
Q 5.515625 13.8125 5.515625 26.8125 
Q 5.515625 40.234375 12.765625 48.109375 
Q 20.015625 56 32.328125 56 
Q 43.359375 56 49.78125 48.890625 
Q 56.203125 41.796875 56.203125 29.59375 
z
M 47.21875 32.234375 
Q 47.125 39.59375 43.09375 43.984375 
Q 39.0625 48.390625 32.421875 48.390625 
Q 24.90625 48.390625 20.390625 44.140625 
Q 15.875 39.890625 15.1875 32.171875 
z
" id="DejaVuSans-101"/>
      <path d="M 41.109375 46.296875 
Q 39.59375 47.171875 37.8125 47.578125 
Q 36.03125 48 33.890625 48 
Q 26.265625 48 22.1875 43.046875 
Q 18.109375 38.09375 18.109375 28.8125 
L 18.109375 0 
L 9.078125 0 
L 9.078125 54.6875 
L 18.109375 54.6875 
L 18.109375 46.1875 
Q 20.953125 51.171875 25.484375 53.578125 
Q 30.03125 56 36.53125 56 
Q 37.453125 56 38.578125 55.875 
Q 39.703125 55.765625 41.0625 55.515625 
z
" id="DejaVuSans-114"/>
      <path d="M 2.984375 54.6875 
L 12.5 54.6875 
L 29.59375 8.796875 
L 46.6875 54.6875 
L 56.203125 54.6875 
L 35.6875 0 
L 23.484375 0 
z
" id="DejaVuSans-118"/>
      <path d="M 9.421875 75.984375 
L 18.40625 75.984375 
L 18.40625 0 
L 9.421875 0 
z
" id="DejaVuSans-108"/>
      <path d="M 8.5 21.578125 
L 8.5 54.6875 
L 17.484375 54.6875 
L 17.484375 21.921875 
Q 17.484375 14.15625 20.5 10.265625 
Q 23.53125 6.390625 29.59375 6.390625 
Q 36.859375 6.390625 41.078125 11.03125 
Q 45.3125 15.671875 45.3125 23.6875 
L 45.3125 54.6875 
L 54.296875 54.6875 
L 54.296875 0 
L 45.3125 0 
L 45.3125 8.40625 
Q 42.046875 3.421875 37.71875 1 
Q 33.40625 -1.421875 27.6875 -1.421875 
Q 18.265625 -1.421875 13.375 4.4375 
Q 8.5 10.296875 8.5 21.578125 
z
M 31.109375 56 
z
" id="DejaVuSans-117"/>
      <path d="M 9.421875 54.6875 
L 18.40625 54.6875 
L 18.40625 0 
L 9.421875 0 
z
M 9.421875 75.984375 
L 18.40625 75.984375 
L 18.40625 64.59375 
L 9.421875 64.59375 
z
" id="DejaVuSans-105"/>
      <path d="M 30.609375 48.390625 
Q 23.390625 48.390625 19.1875 42.75 
Q 14.984375 37.109375 14.984375 27.296875 
Q 14.984375 17.484375 19.15625 11.84375 
Q 23.34375 6.203125 30.609375 6.203125 
Q 37.796875 6.203125 41.984375 11.859375 
Q 46.1875 17.53125 46.1875 27.296875 
Q 46.1875 37.015625 41.984375 42.703125 
Q 37.796875 48.390625 30.609375 48.390625 
z
M 30.609375 56 
Q 42.328125 56 49.015625 48.375 
Q 55.71875 40.765625 55.71875 27.296875 
Q 55.71875 13.875 49.015625 6.21875 
Q 42.328125 -1.421875 30.609375 -1.421875 
Q 18.84375 -1.421875 12.171875 6.21875 
Q 5.515625 13.875 5.515625 27.296875 
Q 5.515625 40.765625 12.171875 48.375 
Q 18.84375 56 30.609375 56 
z
" id="DejaVuSans-111"/>
     </defs>
     <g style="fill:#555555;" transform="translate(138.278125 271.378)scale(0.12 -0.12)">
      <use xlink:href="#DejaVuSans-76"/>
      <use x="55.712891" xlink:href="#DejaVuSans-97"/>
      <use x="116.992188" xlink:href="#DejaVuSans-115"/>
      <use x="169.091797" xlink:href="#DejaVuSans-116"/>
      <use x="208.300781" xlink:href="#DejaVuSans-32"/>
      <use x="240.087891" xlink:href="#DejaVuSans-109"/>
      <use x="337.5" xlink:href="#DejaVuSans-97"/>
      <use x="398.779297" xlink:href="#DejaVuSans-110"/>
      <use x="462.158203" xlink:href="#DejaVuSans-97"/>
      <use x="523.4375" xlink:href="#DejaVuSans-103"/>
      <use x="586.914062" xlink:href="#DejaVuSans-101"/>
      <use x="648.4375" xlink:href="#DejaVuSans-114"/>
      <use x="689.550781" xlink:href="#DejaVuSans-32"/>
      <use x="721.337891" xlink:href="#DejaVuSans-101"/>
      <use x="782.861328" xlink:href="#DejaVuSans-118"/>
      <use x="842.041016" xlink:href="#DejaVuSans-97"/>
      <use x="903.320312" xlink:href="#DejaVuSans-108"/>
      <use x="931.103516" xlink:href="#DejaVuSans-117"/>
      <use x="994.482422" xlink:href="#DejaVuSans-97"/>
      <use x="1055.761719" xlink:href="#DejaVuSans-116"/>
      <use x="1094.970703" xlink:href="#DejaVuSans-105"/>
      <use x="1122.753906" xlink:href="#DejaVuSans-111"/>
      <use x="1183.935547" xlink:href="#DejaVuSans-110"/>
     </g>
    </g>
   </g>
   <g id="matplotlib.axis_2">
    <g id="ytick_1">
     <g id="line2d_9">
      <path clip-path="url(#p4e8e6db7cb)" d="M 45.716875 241.58175 
L 380.516875 241.58175 
" style="fill:none;stroke:#ffffff;stroke-linecap:square;stroke-width:0.8;"/>
     </g>
     <g id="line2d_10">
      <defs>
       <path d="M 0 0 
L -3.5 0 
" id="m99075b9625" style="stroke:#555555;stroke-width:0.8;"/>
      </defs>
      <g>
       <use style="fill:#555555;stroke:#555555;stroke-width:0.8;" x="45.716875" xlink:href="#m99075b9625" y="241.58175"/>
      </g>
     </g>
     <g id="text_6">
      <!-- 0.0 -->
      <g style="fill:#555555;" transform="translate(22.81375 245.380969)scale(0.1 -0.1)">
       <use xlink:href="#DejaVuSans-48"/>
       <use x="63.623047" xlink:href="#DejaVuSans-46"/>
       <use x="95.410156" xlink:href="#DejaVuSans-48"/>
      </g>
     </g>
    </g>
    <g id="ytick_2">
     <g id="line2d_11">
      <path clip-path="url(#p4e8e6db7cb)" d="M 45.716875 208.211322 
L 380.516875 208.211322 
" style="fill:none;stroke:#ffffff;stroke-linecap:square;stroke-width:0.8;"/>
     </g>
     <g id="line2d_12">
      <g>
       <use style="fill:#555555;stroke:#555555;stroke-width:0.8;" x="45.716875" xlink:href="#m99075b9625" y="208.211322"/>
      </g>
     </g>
     <g id="text_7">
      <!-- 0.5 -->
      <defs>
       <path d="M 10.796875 72.90625 
L 49.515625 72.90625 
L 49.515625 64.59375 
L 19.828125 64.59375 
L 19.828125 46.734375 
Q 21.96875 47.46875 24.109375 47.828125 
Q 26.265625 48.1875 28.421875 48.1875 
Q 40.625 48.1875 47.75 41.5 
Q 54.890625 34.8125 54.890625 23.390625 
Q 54.890625 11.625 47.5625 5.09375 
Q 40.234375 -1.421875 26.90625 -1.421875 
Q 22.3125 -1.421875 17.546875 -0.640625 
Q 12.796875 0.140625 7.71875 1.703125 
L 7.71875 11.625 
Q 12.109375 9.234375 16.796875 8.0625 
Q 21.484375 6.890625 26.703125 6.890625 
Q 35.15625 6.890625 40.078125 11.328125 
Q 45.015625 15.765625 45.015625 23.390625 
Q 45.015625 31 40.078125 35.4375 
Q 35.15625 39.890625 26.703125 39.890625 
Q 22.75 39.890625 18.8125 39.015625 
Q 14.890625 38.140625 10.796875 36.28125 
z
" id="DejaVuSans-53"/>
      </defs>
      <g style="fill:#555555;" transform="translate(22.81375 212.010541)scale(0.1 -0.1)">
       <use xlink:href="#DejaVuSans-48"/>
       <use x="63.623047" xlink:href="#DejaVuSans-46"/>
       <use x="95.410156" xlink:href="#DejaVuSans-53"/>
      </g>
     </g>
    </g>
    <g id="ytick_3">
     <g id="line2d_13">
      <path clip-path="url(#p4e8e6db7cb)" d="M 45.716875 174.840894 
L 380.516875 174.840894 
" style="fill:none;stroke:#ffffff;stroke-linecap:square;stroke-width:0.8;"/>
     </g>
     <g id="line2d_14">
      <g>
       <use style="fill:#555555;stroke:#555555;stroke-width:0.8;" x="45.716875" xlink:href="#m99075b9625" y="174.840894"/>
      </g>
     </g>
     <g id="text_8">
      <!-- 1.0 -->
      <g style="fill:#555555;" transform="translate(22.81375 178.640112)scale(0.1 -0.1)">
       <use xlink:href="#DejaVuSans-49"/>
       <use x="63.623047" xlink:href="#DejaVuSans-46"/>
       <use x="95.410156" xlink:href="#DejaVuSans-48"/>
      </g>
     </g>
    </g>
    <g id="ytick_4">
     <g id="line2d_15">
      <path clip-path="url(#p4e8e6db7cb)" d="M 45.716875 141.470466 
L 380.516875 141.470466 
" style="fill:none;stroke:#ffffff;stroke-linecap:square;stroke-width:0.8;"/>
     </g>
     <g id="line2d_16">
      <g>
       <use style="fill:#555555;stroke:#555555;stroke-width:0.8;" x="45.716875" xlink:href="#m99075b9625" y="141.470466"/>
      </g>
     </g>
     <g id="text_9">
      <!-- 1.5 -->
      <g style="fill:#555555;" transform="translate(22.81375 145.269684)scale(0.1 -0.1)">
       <use xlink:href="#DejaVuSans-49"/>
       <use x="63.623047" xlink:href="#DejaVuSans-46"/>
       <use x="95.410156" xlink:href="#DejaVuSans-53"/>
      </g>
     </g>
    </g>
    <g id="ytick_5">
     <g id="line2d_17">
      <path clip-path="url(#p4e8e6db7cb)" d="M 45.716875 108.100037 
L 380.516875 108.100037 
" style="fill:none;stroke:#ffffff;stroke-linecap:square;stroke-width:0.8;"/>
     </g>
     <g id="line2d_18">
      <g>
       <use style="fill:#555555;stroke:#555555;stroke-width:0.8;" x="45.716875" xlink:href="#m99075b9625" y="108.100037"/>
      </g>
     </g>
     <g id="text_10">
      <!-- 2.0 -->
      <defs>
       <path d="M 19.1875 8.296875 
L 53.609375 8.296875 
L 53.609375 0 
L 7.328125 0 
L 7.328125 8.296875 
Q 12.9375 14.109375 22.625 23.890625 
Q 32.328125 33.6875 34.8125 36.53125 
Q 39.546875 41.84375 41.421875 45.53125 
Q 43.3125 49.21875 43.3125 52.78125 
Q 43.3125 58.59375 39.234375 62.25 
Q 35.15625 65.921875 28.609375 65.921875 
Q 23.96875 65.921875 18.8125 64.3125 
Q 13.671875 62.703125 7.8125 59.421875 
L 7.8125 69.390625 
Q 13.765625 71.78125 18.9375 73 
Q 24.125 74.21875 28.421875 74.21875 
Q 39.75 74.21875 46.484375 68.546875 
Q 53.21875 62.890625 53.21875 53.421875 
Q 53.21875 48.921875 51.53125 44.890625 
Q 49.859375 40.875 45.40625 35.40625 
Q 44.1875 33.984375 37.640625 27.21875 
Q 31.109375 20.453125 19.1875 8.296875 
z
" id="DejaVuSans-50"/>
      </defs>
      <g style="fill:#555555;" transform="translate(22.81375 111.899256)scale(0.1 -0.1)">
       <use xlink:href="#DejaVuSans-50"/>
       <use x="63.623047" xlink:href="#DejaVuSans-46"/>
       <use x="95.410156" xlink:href="#DejaVuSans-48"/>
      </g>
     </g>
    </g>
    <g id="ytick_6">
     <g id="line2d_19">
      <path clip-path="url(#p4e8e6db7cb)" d="M 45.716875 74.729609 
L 380.516875 74.729609 
" style="fill:none;stroke:#ffffff;stroke-linecap:square;stroke-width:0.8;"/>
     </g>
     <g id="line2d_20">
      <g>
       <use style="fill:#555555;stroke:#555555;stroke-width:0.8;" x="45.716875" xlink:href="#m99075b9625" y="74.729609"/>
      </g>
     </g>
     <g id="text_11">
      <!-- 2.5 -->
      <g style="fill:#555555;" transform="translate(22.81375 78.528828)scale(0.1 -0.1)">
       <use xlink:href="#DejaVuSans-50"/>
       <use x="63.623047" xlink:href="#DejaVuSans-46"/>
       <use x="95.410156" xlink:href="#DejaVuSans-53"/>
      </g>
     </g>
    </g>
    <g id="ytick_7">
     <g id="line2d_21">
      <path clip-path="url(#p4e8e6db7cb)" d="M 45.716875 41.359181 
L 380.516875 41.359181 
" style="fill:none;stroke:#ffffff;stroke-linecap:square;stroke-width:0.8;"/>
     </g>
     <g id="line2d_22">
      <g>
       <use style="fill:#555555;stroke:#555555;stroke-width:0.8;" x="45.716875" xlink:href="#m99075b9625" y="41.359181"/>
      </g>
     </g>
     <g id="text_12">
      <!-- 3.0 -->
      <defs>
       <path d="M 40.578125 39.3125 
Q 47.65625 37.796875 51.625 33 
Q 55.609375 28.21875 55.609375 21.1875 
Q 55.609375 10.40625 48.1875 4.484375 
Q 40.765625 -1.421875 27.09375 -1.421875 
Q 22.515625 -1.421875 17.65625 -0.515625 
Q 12.796875 0.390625 7.625 2.203125 
L 7.625 11.71875 
Q 11.71875 9.328125 16.59375 8.109375 
Q 21.484375 6.890625 26.8125 6.890625 
Q 36.078125 6.890625 40.9375 10.546875 
Q 45.796875 14.203125 45.796875 21.1875 
Q 45.796875 27.640625 41.28125 31.265625 
Q 36.765625 34.90625 28.71875 34.90625 
L 20.21875 34.90625 
L 20.21875 43.015625 
L 29.109375 43.015625 
Q 36.375 43.015625 40.234375 45.921875 
Q 44.09375 48.828125 44.09375 54.296875 
Q 44.09375 59.90625 40.109375 62.90625 
Q 36.140625 65.921875 28.71875 65.921875 
Q 24.65625 65.921875 20.015625 65.03125 
Q 15.375 64.15625 9.8125 62.3125 
L 9.8125 71.09375 
Q 15.4375 72.65625 20.34375 73.4375 
Q 25.25 74.21875 29.59375 74.21875 
Q 40.828125 74.21875 47.359375 69.109375 
Q 53.90625 64.015625 53.90625 55.328125 
Q 53.90625 49.265625 50.4375 45.09375 
Q 46.96875 40.921875 40.578125 39.3125 
z
" id="DejaVuSans-51"/>
      </defs>
      <g style="fill:#555555;" transform="translate(22.81375 45.1584)scale(0.1 -0.1)">
       <use xlink:href="#DejaVuSans-51"/>
       <use x="63.623047" xlink:href="#DejaVuSans-46"/>
       <use x="95.410156" xlink:href="#DejaVuSans-48"/>
      </g>
     </g>
    </g>
    <g id="text_13">
     <!-- Percentage -->
     <defs>
      <path d="M 19.671875 64.796875 
L 19.671875 37.40625 
L 32.078125 37.40625 
Q 38.96875 37.40625 42.71875 40.96875 
Q 46.484375 44.53125 46.484375 51.125 
Q 46.484375 57.671875 42.71875 61.234375 
Q 38.96875 64.796875 32.078125 64.796875 
z
M 9.8125 72.90625 
L 32.078125 72.90625 
Q 44.34375 72.90625 50.609375 67.359375 
Q 56.890625 61.8125 56.890625 51.125 
Q 56.890625 40.328125 50.609375 34.8125 
Q 44.34375 29.296875 32.078125 29.296875 
L 19.671875 29.296875 
L 19.671875 0 
L 9.8125 0 
z
" id="DejaVuSans-80"/>
      <path d="M 48.78125 52.59375 
L 48.78125 44.1875 
Q 44.96875 46.296875 41.140625 47.34375 
Q 37.3125 48.390625 33.40625 48.390625 
Q 24.65625 48.390625 19.8125 42.84375 
Q 14.984375 37.3125 14.984375 27.296875 
Q 14.984375 17.28125 19.8125 11.734375 
Q 24.65625 6.203125 33.40625 6.203125 
Q 37.3125 6.203125 41.140625 7.25 
Q 44.96875 8.296875 48.78125 10.40625 
L 48.78125 2.09375 
Q 45.015625 0.34375 40.984375 -0.53125 
Q 36.96875 -1.421875 32.421875 -1.421875 
Q 20.0625 -1.421875 12.78125 6.34375 
Q 5.515625 14.109375 5.515625 27.296875 
Q 5.515625 40.671875 12.859375 48.328125 
Q 20.21875 56 33.015625 56 
Q 37.15625 56 41.109375 55.140625 
Q 45.0625 54.296875 48.78125 52.59375 
z
" id="DejaVuSans-99"/>
     </defs>
     <g style="fill:#555555;" transform="translate(16.318125 166.95675)rotate(-90)scale(0.12 -0.12)">
      <use xlink:href="#DejaVuSans-80"/>
      <use x="60.255859" xlink:href="#DejaVuSans-101"/>
      <use x="121.779297" xlink:href="#DejaVuSans-114"/>
      <use x="162.861328" xlink:href="#DejaVuSans-99"/>
      <use x="217.841797" xlink:href="#DejaVuSans-101"/>
      <use x="279.365234" xlink:href="#DejaVuSans-110"/>
      <use x="342.744141" xlink:href="#DejaVuSans-116"/>
      <use x="381.953125" xlink:href="#DejaVuSans-97"/>
      <use x="443.232422" xlink:href="#DejaVuSans-103"/>
      <use x="506.708984" xlink:href="#DejaVuSans-101"/>
     </g>
    </g>
   </g>
   <g id="PolyCollection_1">
    <path clip-path="url(#p4e8e6db7cb)" d="M 60.935057 241.440831 
L 60.935057 241.58175 
L 63.209558 241.58175 
L 65.48406 241.58175 
L 67.758561 241.58175 
L 70.033063 241.58175 
L 72.307564 241.58175 
L 74.582066 241.58175 
L 76.856567 241.58175 
L 79.131069 241.58175 
L 81.40557 241.58175 
L 83.680072 241.58175 
L 85.954573 241.58175 
L 88.229075 241.58175 
L 90.503576 241.58175 
L 92.778078 241.58175 
L 95.052579 241.58175 
L 97.327081 241.58175 
L 99.601582 241.58175 
L 101.876084 241.58175 
L 104.150585 241.58175 
L 106.425087 241.58175 
L 108.699588 241.58175 
L 110.97409 241.58175 
L 113.248591 241.58175 
L 115.523093 241.58175 
L 117.797594 241.58175 
L 120.072096 241.58175 
L 122.346597 241.58175 
L 124.621099 241.58175 
L 126.8956 241.58175 
L 129.170102 241.58175 
L 131.444603 241.58175 
L 133.719105 241.58175 
L 135.993606 241.58175 
L 138.268108 241.58175 
L 140.542609 241.58175 
L 142.817111 241.58175 
L 145.091612 241.58175 
L 147.366114 241.58175 
L 149.640615 241.58175 
L 151.915117 241.58175 
L 154.189618 241.58175 
L 156.46412 241.58175 
L 158.738621 241.58175 
L 161.013123 241.58175 
L 163.287624 241.58175 
L 165.562126 241.58175 
L 167.836627 241.58175 
L 170.111129 241.58175 
L 172.38563 241.58175 
L 174.660132 241.58175 
L 176.934633 241.58175 
L 179.209135 241.58175 
L 181.483636 241.58175 
L 183.758138 241.58175 
L 186.032639 241.58175 
L 188.307141 241.58175 
L 190.581642 241.58175 
L 192.856144 241.58175 
L 195.130645 241.58175 
L 197.405147 241.58175 
L 199.679648 241.58175 
L 201.95415 241.58175 
L 204.228651 241.58175 
L 206.503153 241.58175 
L 208.777654 241.58175 
L 211.052156 241.58175 
L 213.326657 241.58175 
L 215.601159 241.58175 
L 217.87566 241.58175 
L 220.150162 241.58175 
L 222.424663 241.58175 
L 224.699165 241.58175 
L 226.973666 241.58175 
L 229.248168 241.58175 
L 231.522669 241.58175 
L 233.797171 241.58175 
L 236.071672 241.58175 
L 238.346173 241.58175 
L 240.620675 241.58175 
L 242.895176 241.58175 
L 245.169678 241.58175 
L 247.444179 241.58175 
L 249.718681 241.58175 
L 251.993182 241.58175 
L 254.267684 241.58175 
L 256.542185 241.58175 
L 258.816687 241.58175 
L 261.091188 241.58175 
L 263.36569 241.58175 
L 265.640191 241.58175 
L 267.914693 241.58175 
L 270.189194 241.58175 
L 272.463696 241.58175 
L 274.738197 241.58175 
L 277.012699 241.58175 
L 279.2872 241.58175 
L 281.561702 241.58175 
L 283.836203 241.58175 
L 286.110705 241.58175 
L 288.385206 241.58175 
L 290.659708 241.58175 
L 292.934209 241.58175 
L 295.208711 241.58175 
L 297.483212 241.58175 
L 299.757714 241.58175 
L 302.032215 241.58175 
L 304.306717 241.58175 
L 306.581218 241.58175 
L 308.85572 241.58175 
L 311.130221 241.58175 
L 313.404723 241.58175 
L 315.679224 241.58175 
L 317.953726 241.58175 
L 320.228227 241.58175 
L 322.502729 241.58175 
L 324.77723 241.58175 
L 327.051732 241.58175 
L 329.326233 241.58175 
L 331.600735 241.58175 
L 333.875236 241.58175 
L 336.149738 241.58175 
L 338.424239 241.58175 
L 340.698741 241.58175 
L 342.973242 241.58175 
L 345.247744 241.58175 
L 347.522245 241.58175 
L 349.796747 241.58175 
L 349.796747 241.355598 
L 349.796747 241.355598 
L 347.522245 241.150617 
L 345.247744 240.752091 
L 342.973242 240.042163 
L 340.698741 238.853742 
L 338.424239 236.973247 
L 336.149738 234.156697 
L 333.875236 230.162512 
L 331.600735 224.799657 
L 329.326233 217.983126 
L 327.051732 209.782746 
L 324.77723 200.44874 
L 322.502729 190.400961 
L 320.228227 180.178025 
L 317.953726 170.35499 
L 315.679224 161.448917 
L 313.404723 153.836069 
L 311.130221 147.700947 
L 308.85572 143.027322 
L 306.581218 139.629283 
L 304.306717 137.210539 
L 302.032215 135.435495 
L 299.757714 133.996052 
L 297.483212 132.661863 
L 295.208711 131.306826 
L 292.934209 129.909703 
L 290.659708 128.531656 
L 288.385206 127.278069 
L 286.110705 126.255535 
L 283.836203 125.53599 
L 281.561702 125.137451 
L 279.2872 125.02492 
L 277.012699 125.127785 
L 274.738197 125.364519 
L 272.463696 125.664099 
L 270.189194 125.976862 
L 267.914693 126.273449 
L 265.640191 126.536041 
L 263.36569 126.74846 
L 261.091188 126.890287 
L 258.816687 126.936412 
L 256.542185 126.859858 
L 254.267684 126.634527 
L 251.993182 126.235927 
L 249.718681 125.640815 
L 247.444179 124.828711 
L 245.169678 123.788098 
L 242.895176 122.527577 
L 240.620675 121.088717 
L 238.346173 119.554774 
L 236.071672 118.049307 
L 233.797171 116.721416 
L 231.522669 115.718899 
L 229.248168 115.155386 
L 226.973666 115.080594 
L 224.699165 115.462978 
L 222.424663 116.191006 
L 220.150162 117.093961 
L 217.87566 117.977259 
L 215.601159 118.662929 
L 213.326657 119.024331 
L 211.052156 119.006198 
L 208.777654 118.625711 
L 206.503153 117.95622 
L 204.228651 117.100244 
L 201.95415 116.161025 
L 199.679648 115.221173 
L 197.405147 114.333298 
L 195.130645 113.522571 
L 192.856144 112.796986 
L 190.581642 112.159326 
L 188.307141 111.615878 
L 186.032639 111.179727 
L 183.758138 110.869225 
L 181.483636 110.703783 
L 179.209135 110.699101 
L 176.934633 110.863199 
L 174.660132 111.193902 
L 172.38563 111.678228 
L 170.111129 112.294019 
L 167.836627 113.013811 
L 165.562126 113.810188 
L 163.287624 114.661407 
L 161.013123 115.55651 
L 158.738621 116.500319 
L 156.46412 117.519873 
L 154.189618 118.673533 
L 151.915117 120.061638 
L 149.640615 121.834068 
L 147.366114 124.18738 
L 145.091612 127.344751 
L 142.817111 131.516666 
L 140.542609 136.848079 
L 138.268108 143.365313 
L 135.993606 150.939762 
L 133.719105 159.28288 
L 131.444603 167.97832 
L 129.170102 176.545438 
L 126.8956 184.518329 
L 124.621099 191.520004 
L 122.346597 197.313978 
L 120.072096 201.823695 
L 117.797594 205.120421 
L 115.523093 207.388342 
L 113.248591 208.879438 
L 110.97409 209.869747 
L 108.699588 210.624647 
L 106.425087 211.375791 
L 104.150585 212.308307 
L 101.876084 213.5548 
L 99.601582 215.192735 
L 97.327081 217.24337 
L 95.052579 219.672566 
L 92.778078 222.395386 
L 90.503576 225.286568 
L 88.229075 228.197462 
L 85.954573 230.977555 
L 83.680072 233.496442 
L 81.40557 235.661268 
L 79.131069 237.42573 
L 76.856567 238.789283 
L 74.582066 239.788078 
L 72.307564 240.481162 
L 70.033063 240.935997 
L 67.758561 241.216376 
L 65.48406 241.374103 
L 63.209558 241.444027 
L 60.935057 241.440831 
z
" style="fill:#e24a33;fill-opacity:0.25;"/>
   </g>
   <g id="PolyCollection_2">
    <path clip-path="url(#p4e8e6db7cb)" d="M 77.976918 240.885926 
L 77.976918 241.58175 
L 80.239294 241.58175 
L 82.50167 241.58175 
L 84.764046 241.58175 
L 87.026423 241.58175 
L 89.288799 241.58175 
L 91.551175 241.58175 
L 93.813551 241.58175 
L 96.075927 241.58175 
L 98.338304 241.58175 
L 100.60068 241.58175 
L 102.863056 241.58175 
L 105.125432 241.58175 
L 107.387808 241.58175 
L 109.650184 241.58175 
L 111.912561 241.58175 
L 114.174937 241.58175 
L 116.437313 241.58175 
L 118.699689 241.58175 
L 120.962065 241.58175 
L 123.224442 241.58175 
L 125.486818 241.58175 
L 127.749194 241.58175 
L 130.01157 241.58175 
L 132.273946 241.58175 
L 134.536322 241.58175 
L 136.798699 241.58175 
L 139.061075 241.58175 
L 141.323451 241.58175 
L 143.585827 241.58175 
L 145.848203 241.58175 
L 148.11058 241.58175 
L 150.372956 241.58175 
L 152.635332 241.58175 
L 154.897708 241.58175 
L 157.160084 241.58175 
L 159.42246 241.58175 
L 161.684837 241.58175 
L 163.947213 241.58175 
L 166.209589 241.58175 
L 168.471965 241.58175 
L 170.734341 241.58175 
L 172.996718 241.58175 
L 175.259094 241.58175 
L 177.52147 241.58175 
L 179.783846 241.58175 
L 182.046222 241.58175 
L 184.308599 241.58175 
L 186.570975 241.58175 
L 188.833351 241.58175 
L 191.095727 241.58175 
L 193.358103 241.58175 
L 195.620479 241.58175 
L 197.882856 241.58175 
L 200.145232 241.58175 
L 202.407608 241.58175 
L 204.669984 241.58175 
L 206.93236 241.58175 
L 209.194737 241.58175 
L 211.457113 241.58175 
L 213.719489 241.58175 
L 215.981865 241.58175 
L 218.244241 241.58175 
L 220.506617 241.58175 
L 222.768994 241.58175 
L 225.03137 241.58175 
L 227.293746 241.58175 
L 229.556122 241.58175 
L 231.818498 241.58175 
L 234.080875 241.58175 
L 236.343251 241.58175 
L 238.605627 241.58175 
L 240.868003 241.58175 
L 243.130379 241.58175 
L 245.392755 241.58175 
L 247.655132 241.58175 
L 249.917508 241.58175 
L 252.179884 241.58175 
L 254.44226 241.58175 
L 256.704636 241.58175 
L 258.967013 241.58175 
L 261.229389 241.58175 
L 263.491765 241.58175 
L 265.754141 241.58175 
L 268.016517 241.58175 
L 270.278893 241.58175 
L 272.54127 241.58175 
L 274.803646 241.58175 
L 277.066022 241.58175 
L 279.328398 241.58175 
L 281.590774 241.58175 
L 283.853151 241.58175 
L 286.115527 241.58175 
L 288.377903 241.58175 
L 290.640279 241.58175 
L 292.902655 241.58175 
L 295.165031 241.58175 
L 297.427408 241.58175 
L 299.689784 241.58175 
L 301.95216 241.58175 
L 304.214536 241.58175 
L 306.476912 241.58175 
L 308.739289 241.58175 
L 311.001665 241.58175 
L 313.264041 241.58175 
L 315.526417 241.58175 
L 317.788793 241.58175 
L 320.05117 241.58175 
L 322.313546 241.58175 
L 324.575922 241.58175 
L 326.838298 241.58175 
L 329.100674 241.58175 
L 331.36305 241.58175 
L 333.625427 241.58175 
L 335.887803 241.58175 
L 338.150179 241.58175 
L 340.412555 241.58175 
L 342.674931 241.58175 
L 344.937308 241.58175 
L 347.199684 241.58175 
L 349.46206 241.58175 
L 351.724436 241.58175 
L 353.986812 241.58175 
L 356.249188 241.58175 
L 358.511565 241.58175 
L 360.773941 241.58175 
L 363.036317 241.58175 
L 365.298693 241.58175 
L 365.298693 240.857926 
L 365.298693 240.857926 
L 363.036317 240.674694 
L 360.773941 240.316313 
L 358.511565 239.744559 
L 356.249188 238.903811 
L 353.986812 237.722577 
L 351.724436 236.116109 
L 349.46206 233.990536 
L 347.199684 231.24878 
L 344.937308 227.798242 
L 342.674931 223.559907 
L 340.412555 218.478124 
L 338.150179 212.529978 
L 335.887803 205.732968 
L 333.625427 198.149711 
L 331.36305 189.888599 
L 329.100674 181.099851 
L 326.838298 171.967003 
L 324.575922 162.694612 
L 322.313546 153.493542 
L 320.05117 144.56564 
L 317.788793 136.089673 
L 315.526417 128.210217 
L 313.264041 121.030633 
L 311.001665 114.610643 
L 308.739289 108.968255 
L 306.476912 104.085284 
L 304.214536 99.915281 
L 301.95216 96.392655 
L 299.689784 93.441876 
L 297.427408 90.985946 
L 295.165031 88.953688 
L 292.902655 87.285656 
L 290.640279 85.93866 
L 288.377903 84.888936 
L 286.115527 84.133922 
L 283.853151 83.692518 
L 281.590774 83.603642 
L 279.328398 83.922952 
L 277.066022 84.717744 
L 274.803646 86.060289 
L 272.54127 88.020146 
L 270.278893 90.656245 
L 268.016517 94.009643 
L 265.754141 98.097848 
L 263.491765 102.911402 
L 261.229389 108.413077 
L 258.967013 114.539668 
L 256.704636 121.205948 
L 254.44226 128.310095 
L 252.179884 135.739751 
L 249.917508 143.37791 
L 247.655132 151.108009 
L 245.392755 158.817906 
L 243.130379 166.402665 
L 240.868003 173.766388 
L 238.605627 180.823397 
L 236.343251 187.499151 
L 234.080875 193.73113 
L 231.818498 199.469791 
L 229.556122 204.679497 
L 227.293746 209.339183 
L 225.03137 213.44246 
L 222.768994 216.996885 
L 220.506617 220.0222 
L 218.244241 222.547523 
L 215.981865 224.607598 
L 213.719489 226.238341 
L 211.457113 227.472019 
L 209.194737 228.332401 
L 206.93236 228.830221 
L 204.669984 228.959258 
L 202.407608 228.693331 
L 200.145232 227.984471 
L 197.882856 226.76259 
L 195.620479 224.936943 
L 193.358103 222.39972 
L 191.095727 219.031986 
L 188.833351 214.712055 
L 186.570975 209.326094 
L 184.308599 202.780377 
L 182.046222 195.014242 
L 179.783846 186.012429 
L 177.52147 175.815252 
L 175.259094 164.525106 
L 172.996718 152.308044 
L 170.734341 139.389756 
L 168.471965 126.045984 
L 166.209589 112.588257 
L 163.947213 99.34655 
L 161.684837 86.650964 
L 159.42246 74.814672 
L 157.160084 64.120077 
L 154.897708 54.809554 
L 152.635332 47.081205 
L 150.372956 41.089178 
L 148.11058 36.947225 
L 145.848203 34.733698 
L 143.585827 34.496036 
L 141.323451 36.253108 
L 139.061075 39.994477 
L 136.798699 45.676517 
L 134.536322 53.216264 
L 132.273946 62.484632 
L 130.01157 73.301044 
L 127.749194 85.431521 
L 125.486818 98.591796 
L 123.224442 112.456219 
L 120.962065 126.67219 
L 118.699689 140.878854 
L 116.437313 154.727989 
L 114.174937 167.904601 
L 111.912561 180.144716 
L 109.650184 191.248351 
L 107.387808 201.086347 
L 105.125432 209.600714 
L 102.863056 216.79902 
L 100.60068 222.744082 
L 98.338304 227.540679 
L 96.075927 231.321093 
L 93.813551 234.231153 
L 91.551175 236.418035 
L 89.288799 238.020599 
L 87.026423 239.162526 
L 84.764046 239.948098 
L 82.50167 240.460154 
L 80.239294 240.759613 
L 77.976918 240.885926 
z
" style="fill:#348abd;fill-opacity:0.25;"/>
   </g>
   <g id="line2d_23">
    <path clip-path="url(#p4e8e6db7cb)" d="M 60.935057 241.440831 
L 65.48406 241.374103 
L 67.758561 241.216376 
L 70.033063 240.935997 
L 72.307564 240.481162 
L 74.582066 239.788078 
L 76.856567 238.789283 
L 79.131069 237.42573 
L 81.40557 235.661268 
L 83.680072 233.496442 
L 85.954573 230.977555 
L 90.503576 225.286568 
L 95.052579 219.672566 
L 97.327081 217.24337 
L 99.601582 215.192735 
L 101.876084 213.5548 
L 104.150585 212.308307 
L 106.425087 211.375791 
L 110.97409 209.869747 
L 113.248591 208.879438 
L 115.523093 207.388342 
L 117.797594 205.120421 
L 120.072096 201.823695 
L 122.346597 197.313978 
L 124.621099 191.520004 
L 126.8956 184.518329 
L 129.170102 176.545438 
L 135.993606 150.939762 
L 138.268108 143.365313 
L 140.542609 136.848079 
L 142.817111 131.516666 
L 145.091612 127.344751 
L 147.366114 124.18738 
L 149.640615 121.834068 
L 151.915117 120.061638 
L 154.189618 118.673533 
L 156.46412 117.519873 
L 161.013123 115.55651 
L 165.562126 113.810188 
L 170.111129 112.294019 
L 172.38563 111.678228 
L 174.660132 111.193902 
L 176.934633 110.863199 
L 179.209135 110.699101 
L 181.483636 110.703783 
L 183.758138 110.869225 
L 186.032639 111.179727 
L 190.581642 112.159326 
L 195.130645 113.522571 
L 199.679648 115.221173 
L 206.503153 117.95622 
L 208.777654 118.625711 
L 211.052156 119.006198 
L 213.326657 119.024331 
L 215.601159 118.662929 
L 217.87566 117.977259 
L 222.424663 116.191006 
L 224.699165 115.462978 
L 226.973666 115.080594 
L 229.248168 115.155386 
L 231.522669 115.718899 
L 233.797171 116.721416 
L 236.071672 118.049307 
L 242.895176 122.527577 
L 245.169678 123.788098 
L 247.444179 124.828711 
L 249.718681 125.640815 
L 251.993182 126.235927 
L 254.267684 126.634527 
L 256.542185 126.859858 
L 258.816687 126.936412 
L 263.36569 126.74846 
L 267.914693 126.273449 
L 277.012699 125.127785 
L 279.2872 125.02492 
L 281.561702 125.137451 
L 283.836203 125.53599 
L 286.110705 126.255535 
L 288.385206 127.278069 
L 292.934209 129.909703 
L 302.032215 135.435495 
L 304.306717 137.210539 
L 306.581218 139.629283 
L 308.85572 143.027322 
L 311.130221 147.700947 
L 313.404723 153.836069 
L 315.679224 161.448917 
L 317.953726 170.35499 
L 322.502729 190.400961 
L 324.77723 200.44874 
L 327.051732 209.782746 
L 329.326233 217.983126 
L 331.600735 224.799657 
L 333.875236 230.162512 
L 336.149738 234.156697 
L 338.424239 236.973247 
L 340.698741 238.853742 
L 342.973242 240.042163 
L 345.247744 240.752091 
L 347.522245 241.150617 
L 349.796747 241.355598 
L 349.796747 241.355598 
" style="fill:none;stroke:#e24a33;stroke-linecap:square;stroke-width:1.5;"/>
   </g>
   <g id="line2d_24">
    <path clip-path="url(#p4e8e6db7cb)" d="M 77.976918 240.885926 
L 80.239294 240.759613 
L 82.50167 240.460154 
L 84.764046 239.948098 
L 87.026423 239.162526 
L 89.288799 238.020599 
L 91.551175 236.418035 
L 93.813551 234.231153 
L 96.075927 231.321093 
L 98.338304 227.540679 
L 100.60068 222.744082 
L 102.863056 216.79902 
L 105.125432 209.600714 
L 107.387808 201.086347 
L 109.650184 191.248351 
L 111.912561 180.144716 
L 114.174937 167.904601 
L 116.437313 154.727989 
L 120.962065 126.67219 
L 125.486818 98.591796 
L 127.749194 85.431521 
L 130.01157 73.301044 
L 132.273946 62.484632 
L 134.536322 53.216264 
L 136.798699 45.676517 
L 139.061075 39.994477 
L 141.323451 36.253108 
L 143.585827 34.496036 
L 145.848203 34.733698 
L 148.11058 36.947225 
L 150.372956 41.089178 
L 152.635332 47.081205 
L 154.897708 54.809554 
L 157.160084 64.120077 
L 159.42246 74.814672 
L 161.684837 86.650964 
L 166.209589 112.588257 
L 172.996718 152.308044 
L 175.259094 164.525106 
L 177.52147 175.815252 
L 179.783846 186.012429 
L 182.046222 195.014242 
L 184.308599 202.780377 
L 186.570975 209.326094 
L 188.833351 214.712055 
L 191.095727 219.031986 
L 193.358103 222.39972 
L 195.620479 224.936943 
L 197.882856 226.76259 
L 200.145232 227.984471 
L 202.407608 228.693331 
L 204.669984 228.959258 
L 206.93236 228.830221 
L 209.194737 228.332401 
L 211.457113 227.472019 
L 213.719489 226.238341 
L 215.981865 224.607598 
L 218.244241 222.547523 
L 220.506617 220.0222 
L 222.768994 216.996885 
L 225.03137 213.44246 
L 227.293746 209.339183 
L 229.556122 204.679497 
L 231.818498 199.469791 
L 234.080875 193.73113 
L 236.343251 187.499151 
L 238.605627 180.823397 
L 243.130379 166.402665 
L 256.704636 121.205948 
L 258.967013 114.539668 
L 261.229389 108.413077 
L 263.491765 102.911402 
L 265.754141 98.097848 
L 268.016517 94.009643 
L 270.278893 90.656245 
L 272.54127 88.020146 
L 274.803646 86.060289 
L 277.066022 84.717744 
L 279.328398 83.922952 
L 281.590774 83.603642 
L 283.853151 83.692518 
L 286.115527 84.133922 
L 288.377903 84.888936 
L 290.640279 85.93866 
L 292.902655 87.285656 
L 295.165031 88.953688 
L 297.427408 90.985946 
L 299.689784 93.441876 
L 301.95216 96.392655 
L 304.214536 99.915281 
L 306.476912 104.085284 
L 308.739289 108.968255 
L 311.001665 114.610643 
L 313.264041 121.030633 
L 315.526417 128.210217 
L 317.788793 136.089673 
L 320.05117 144.56564 
L 324.575922 162.694612 
L 329.100674 181.099851 
L 331.36305 189.888599 
L 333.625427 198.149711 
L 335.887803 205.732968 
L 338.150179 212.529978 
L 340.412555 218.478124 
L 342.674931 223.559907 
L 344.937308 227.798242 
L 347.199684 231.24878 
L 349.46206 233.990536 
L 351.724436 236.116109 
L 353.986812 237.722577 
L 356.249188 238.903811 
L 358.511565 239.744559 
L 360.773941 240.316313 
L 363.036317 240.674694 
L 365.298693 240.857926 
L 365.298693 240.857926 
" style="fill:none;stroke:#348abd;stroke-linecap:square;stroke-width:1.5;"/>
   </g>
   <g id="patch_3">
    <path d="M 45.716875 241.58175 
L 45.716875 24.14175 
" style="fill:none;stroke:#ffffff;stroke-linecap:square;stroke-linejoin:miter;"/>
   </g>
   <g id="patch_4">
    <path d="M 380.516875 241.58175 
L 380.516875 24.14175 
" style="fill:none;stroke:#ffffff;stroke-linecap:square;stroke-linejoin:miter;"/>
   </g>
   <g id="patch_5">
    <path d="M 45.716875 241.58175 
L 380.516875 241.58175 
" style="fill:none;stroke:#ffffff;stroke-linecap:square;stroke-linejoin:miter;"/>
   </g>
   <g id="patch_6">
    <path d="M 45.716875 24.14175 
L 380.516875 24.14175 
" style="fill:none;stroke:#ffffff;stroke-linecap:square;stroke-linejoin:miter;"/>
   </g>
   <g id="text_14">
    <!-- Lower and higher rated more likely to churn -->
    <defs>
     <path d="M 4.203125 54.6875 
L 13.1875 54.6875 
L 24.421875 12.015625 
L 35.59375 54.6875 
L 46.1875 54.6875 
L 57.421875 12.015625 
L 68.609375 54.6875 
L 77.59375 54.6875 
L 63.28125 0 
L 52.6875 0 
L 40.921875 44.828125 
L 29.109375 0 
L 18.5 0 
z
" id="DejaVuSans-119"/>
     <path d="M 45.40625 46.390625 
L 45.40625 75.984375 
L 54.390625 75.984375 
L 54.390625 0 
L 45.40625 0 
L 45.40625 8.203125 
Q 42.578125 3.328125 38.25 0.953125 
Q 33.9375 -1.421875 27.875 -1.421875 
Q 17.96875 -1.421875 11.734375 6.484375 
Q 5.515625 14.40625 5.515625 27.296875 
Q 5.515625 40.1875 11.734375 48.09375 
Q 17.96875 56 27.875 56 
Q 33.9375 56 38.25 53.625 
Q 42.578125 51.265625 45.40625 46.390625 
z
M 14.796875 27.296875 
Q 14.796875 17.390625 18.875 11.75 
Q 22.953125 6.109375 30.078125 6.109375 
Q 37.203125 6.109375 41.296875 11.75 
Q 45.40625 17.390625 45.40625 27.296875 
Q 45.40625 37.203125 41.296875 42.84375 
Q 37.203125 48.484375 30.078125 48.484375 
Q 22.953125 48.484375 18.875 42.84375 
Q 14.796875 37.203125 14.796875 27.296875 
z
" id="DejaVuSans-100"/>
     <path d="M 54.890625 33.015625 
L 54.890625 0 
L 45.90625 0 
L 45.90625 32.71875 
Q 45.90625 40.484375 42.875 44.328125 
Q 39.84375 48.1875 33.796875 48.1875 
Q 26.515625 48.1875 22.3125 43.546875 
Q 18.109375 38.921875 18.109375 30.90625 
L 18.109375 0 
L 9.078125 0 
L 9.078125 75.984375 
L 18.109375 75.984375 
L 18.109375 46.1875 
Q 21.34375 51.125 25.703125 53.5625 
Q 30.078125 56 35.796875 56 
Q 45.21875 56 50.046875 50.171875 
Q 54.890625 44.34375 54.890625 33.015625 
z
" id="DejaVuSans-104"/>
     <path d="M 9.078125 75.984375 
L 18.109375 75.984375 
L 18.109375 31.109375 
L 44.921875 54.6875 
L 56.390625 54.6875 
L 27.390625 29.109375 
L 57.625 0 
L 45.90625 0 
L 18.109375 26.703125 
L 18.109375 0 
L 9.078125 0 
z
" id="DejaVuSans-107"/>
     <path d="M 32.171875 -5.078125 
Q 28.375 -14.84375 24.75 -17.8125 
Q 21.140625 -20.796875 15.09375 -20.796875 
L 7.90625 -20.796875 
L 7.90625 -13.28125 
L 13.1875 -13.28125 
Q 16.890625 -13.28125 18.9375 -11.515625 
Q 21 -9.765625 23.484375 -3.21875 
L 25.09375 0.875 
L 2.984375 54.6875 
L 12.5 54.6875 
L 29.59375 11.921875 
L 46.6875 54.6875 
L 56.203125 54.6875 
z
" id="DejaVuSans-121"/>
    </defs>
    <g transform="translate(45.716875 18.14175)scale(0.144 -0.144)">
     <use xlink:href="#DejaVuSans-76"/>
     <use x="55.697266" xlink:href="#DejaVuSans-111"/>
     <use x="116.878906" xlink:href="#DejaVuSans-119"/>
     <use x="198.666016" xlink:href="#DejaVuSans-101"/>
     <use x="260.189453" xlink:href="#DejaVuSans-114"/>
     <use x="301.302734" xlink:href="#DejaVuSans-32"/>
     <use x="333.089844" xlink:href="#DejaVuSans-97"/>
     <use x="394.369141" xlink:href="#DejaVuSans-110"/>
     <use x="457.748047" xlink:href="#DejaVuSans-100"/>
     <use x="521.224609" xlink:href="#DejaVuSans-32"/>
     <use x="553.011719" xlink:href="#DejaVuSans-104"/>
     <use x="616.390625" xlink:href="#DejaVuSans-105"/>
     <use x="644.173828" xlink:href="#DejaVuSans-103"/>
     <use x="707.650391" xlink:href="#DejaVuSans-104"/>
     <use x="771.029297" xlink:href="#DejaVuSans-101"/>
     <use x="832.552734" xlink:href="#DejaVuSans-114"/>
     <use x="873.666016" xlink:href="#DejaVuSans-32"/>
     <use x="905.453125" xlink:href="#DejaVuSans-114"/>
     <use x="946.566406" xlink:href="#DejaVuSans-97"/>
     <use x="1007.845703" xlink:href="#DejaVuSans-116"/>
     <use x="1047.054688" xlink:href="#DejaVuSans-101"/>
     <use x="1108.578125" xlink:href="#DejaVuSans-100"/>
     <use x="1172.054688" xlink:href="#DejaVuSans-32"/>
     <use x="1203.841797" xlink:href="#DejaVuSans-109"/>
     <use x="1301.253906" xlink:href="#DejaVuSans-111"/>
     <use x="1362.435547" xlink:href="#DejaVuSans-114"/>
     <use x="1403.517578" xlink:href="#DejaVuSans-101"/>
     <use x="1465.041016" xlink:href="#DejaVuSans-32"/>
     <use x="1496.828125" xlink:href="#DejaVuSans-108"/>
     <use x="1524.611328" xlink:href="#DejaVuSans-105"/>
     <use x="1552.394531" xlink:href="#DejaVuSans-107"/>
     <use x="1610.257812" xlink:href="#DejaVuSans-101"/>
     <use x="1671.78125" xlink:href="#DejaVuSans-108"/>
     <use x="1699.564453" xlink:href="#DejaVuSans-121"/>
     <use x="1758.744141" xlink:href="#DejaVuSans-32"/>
     <use x="1790.53125" xlink:href="#DejaVuSans-116"/>
     <use x="1829.740234" xlink:href="#DejaVuSans-111"/>
     <use x="1890.921875" xlink:href="#DejaVuSans-32"/>
     <use x="1922.708984" xlink:href="#DejaVuSans-99"/>
     <use x="1977.689453" xlink:href="#DejaVuSans-104"/>
     <use x="2041.068359" xlink:href="#DejaVuSans-117"/>
     <use x="2104.447266" xlink:href="#DejaVuSans-114"/>
     <use x="2145.544922" xlink:href="#DejaVuSans-110"/>
    </g>
   </g>
   <g id="legend_1">
    <g id="patch_7">
     <path d="M 298.910625 61.498 
L 373.516875 61.498 
Q 375.516875 61.498 375.516875 59.498 
L 375.516875 31.14175 
Q 375.516875 29.14175 373.516875 29.14175 
L 298.910625 29.14175 
Q 296.910625 29.14175 296.910625 31.14175 
L 296.910625 59.498 
Q 296.910625 61.498 298.910625 61.498 
z
" style="fill:#e5e5e5;opacity:0.8;stroke:#cccccc;stroke-linejoin:miter;stroke-width:0.5;"/>
    </g>
    <g id="line2d_25">
     <path d="M 300.910625 37.240187 
L 320.910625 37.240187 
" style="fill:none;stroke:#e24a33;stroke-linecap:square;stroke-width:1.5;"/>
    </g>
    <g id="line2d_26"/>
    <g id="text_15">
     <!-- Remain -->
     <defs>
      <path d="M 44.390625 34.1875 
Q 47.5625 33.109375 50.5625 29.59375 
Q 53.5625 26.078125 56.59375 19.921875 
L 66.609375 0 
L 56 0 
L 46.6875 18.703125 
Q 43.0625 26.03125 39.671875 28.421875 
Q 36.28125 30.8125 30.421875 30.8125 
L 19.671875 30.8125 
L 19.671875 0 
L 9.8125 0 
L 9.8125 72.90625 
L 32.078125 72.90625 
Q 44.578125 72.90625 50.734375 67.671875 
Q 56.890625 62.453125 56.890625 51.90625 
Q 56.890625 45.015625 53.6875 40.46875 
Q 50.484375 35.9375 44.390625 34.1875 
z
M 19.671875 64.796875 
L 19.671875 38.921875 
L 32.078125 38.921875 
Q 39.203125 38.921875 42.84375 42.21875 
Q 46.484375 45.515625 46.484375 51.90625 
Q 46.484375 58.296875 42.84375 61.546875 
Q 39.203125 64.796875 32.078125 64.796875 
z
" id="DejaVuSans-82"/>
     </defs>
     <g transform="translate(328.910625 40.740187)scale(0.1 -0.1)">
      <use xlink:href="#DejaVuSans-82"/>
      <use x="69.419922" xlink:href="#DejaVuSans-101"/>
      <use x="130.943359" xlink:href="#DejaVuSans-109"/>
      <use x="228.355469" xlink:href="#DejaVuSans-97"/>
      <use x="289.634766" xlink:href="#DejaVuSans-105"/>
      <use x="317.417969" xlink:href="#DejaVuSans-110"/>
     </g>
    </g>
    <g id="line2d_27">
     <path d="M 300.910625 51.918312 
L 320.910625 51.918312 
" style="fill:none;stroke:#348abd;stroke-linecap:square;stroke-width:1.5;"/>
    </g>
    <g id="line2d_28"/>
    <g id="text_16">
     <!-- Churned -->
     <defs>
      <path d="M 64.40625 67.28125 
L 64.40625 56.890625 
Q 59.421875 61.53125 53.78125 63.8125 
Q 48.140625 66.109375 41.796875 66.109375 
Q 29.296875 66.109375 22.65625 58.46875 
Q 16.015625 50.828125 16.015625 36.375 
Q 16.015625 21.96875 22.65625 14.328125 
Q 29.296875 6.6875 41.796875 6.6875 
Q 48.140625 6.6875 53.78125 8.984375 
Q 59.421875 11.28125 64.40625 15.921875 
L 64.40625 5.609375 
Q 59.234375 2.09375 53.4375 0.328125 
Q 47.65625 -1.421875 41.21875 -1.421875 
Q 24.65625 -1.421875 15.125 8.703125 
Q 5.609375 18.84375 5.609375 36.375 
Q 5.609375 53.953125 15.125 64.078125 
Q 24.65625 74.21875 41.21875 74.21875 
Q 47.75 74.21875 53.53125 72.484375 
Q 59.328125 70.75 64.40625 67.28125 
z
" id="DejaVuSans-67"/>
     </defs>
     <g transform="translate(328.910625 55.418312)scale(0.1 -0.1)">
      <use xlink:href="#DejaVuSans-67"/>
      <use x="69.824219" xlink:href="#DejaVuSans-104"/>
      <use x="133.203125" xlink:href="#DejaVuSans-117"/>
      <use x="196.582031" xlink:href="#DejaVuSans-114"/>
      <use x="237.679688" xlink:href="#DejaVuSans-110"/>
      <use x="301.058594" xlink:href="#DejaVuSans-101"/>
      <use x="362.582031" xlink:href="#DejaVuSans-100"/>
     </g>
    </g>
   </g>
  </g>
 </g>
 <defs>
  <clipPath id="p4e8e6db7cb">
   <rect height="217.44" width="334.8" x="45.716875" y="24.14175"/>
  </clipPath>
 </defs>
</svg>
