<?xml version="1.0" encoding="utf-8" standalone="no"?>
<!DOCTYPE svg PUBLIC "-//W3C//DTD SVG 1.1//EN"
  "http://www.w3.org/Graphics/SVG/1.1/DTD/svg11.dtd">
<!-- Created with matplotlib (https://matplotlib.org/) -->
<svg height="281.073625pt" version="1.1" viewBox="0 0 403.941875 281.073625" width="403.941875pt" xmlns="http://www.w3.org/2000/svg" xmlns:xlink="http://www.w3.org/1999/xlink">
 <defs>
  <style type="text/css">
*{stroke-linecap:butt;stroke-linejoin:round;}
  </style>
 </defs>
 <g id="figure_1">
  <g id="patch_1">
   <path d="M 0 281.073625 
L 403.941875 281.073625 
L 403.941875 0 
L 0 0 
z
" style="fill:#ffffff;"/>
  </g>
  <g id="axes_1">
   <g id="patch_2">
    <path d="M 58.441875 241.58175 
L 393.241875 241.58175 
L 393.241875 24.14175 
L 58.441875 24.14175 
z
" style="fill:#e5e5e5;"/>
   </g>
   <g id="matplotlib.axis_1">
    <g id="xtick_1">
     <g id="line2d_1">
      <path clip-path="url(#p9691cd9385)" d="M 102.953572 241.58175 
L 102.953572 24.14175 
" style="fill:none;stroke:#ffffff;stroke-linecap:square;stroke-width:0.8;"/>
     </g>
     <g id="line2d_2">
      <defs>
       <path d="M 0 0 
L 0 3.5 
" id="m6ad34fd485" style="stroke:#555555;stroke-width:0.8;"/>
      </defs>
      <g>
       <use style="fill:#555555;stroke:#555555;stroke-width:0.8;" x="102.953572" xlink:href="#m6ad34fd485" y="241.58175"/>
      </g>
     </g>
     <g id="text_1">
      <!-- 100 -->
      <defs>
       <path d="M 12.40625 8.296875 
L 28.515625 8.296875 
L 28.515625 63.921875 
L 10.984375 60.40625 
L 10.984375 69.390625 
L 28.421875 72.90625 
L 38.28125 72.90625 
L 38.28125 8.296875 
L 54.390625 8.296875 
L 54.390625 0 
L 12.40625 0 
z
" id="DejaVuSans-49"/>
       <path d="M 31.78125 66.40625 
Q 24.171875 66.40625 20.328125 58.90625 
Q 16.5 51.421875 16.5 36.375 
Q 16.5 21.390625 20.328125 13.890625 
Q 24.171875 6.390625 31.78125 6.390625 
Q 39.453125 6.390625 43.28125 13.890625 
Q 47.125 21.390625 47.125 36.375 
Q 47.125 51.421875 43.28125 58.90625 
Q 39.453125 66.40625 31.78125 66.40625 
z
M 31.78125 74.21875 
Q 44.046875 74.21875 50.515625 64.515625 
Q 56.984375 54.828125 56.984375 36.375 
Q 56.984375 17.96875 50.515625 8.265625 
Q 44.046875 -1.421875 31.78125 -1.421875 
Q 19.53125 -1.421875 13.0625 8.265625 
Q 6.59375 17.96875 6.59375 36.375 
Q 6.59375 54.828125 13.0625 64.515625 
Q 19.53125 74.21875 31.78125 74.21875 
z
" id="DejaVuSans-48"/>
      </defs>
      <g style="fill:#555555;" transform="translate(93.409822 256.180187)scale(0.1 -0.1)">
       <use xlink:href="#DejaVuSans-49"/>
       <use x="63.623047" xlink:href="#DejaVuSans-48"/>
       <use x="127.246094" xlink:href="#DejaVuSans-48"/>
      </g>
     </g>
    </g>
    <g id="xtick_2">
     <g id="line2d_3">
      <path clip-path="url(#p9691cd9385)" d="M 158.441604 241.58175 
L 158.441604 24.14175 
" style="fill:none;stroke:#ffffff;stroke-linecap:square;stroke-width:0.8;"/>
     </g>
     <g id="line2d_4">
      <g>
       <use style="fill:#555555;stroke:#555555;stroke-width:0.8;" x="158.441604" xlink:href="#m6ad34fd485" y="241.58175"/>
      </g>
     </g>
     <g id="text_2">
      <!-- 150 -->
      <defs>
       <path d="M 10.796875 72.90625 
L 49.515625 72.90625 
L 49.515625 64.59375 
L 19.828125 64.59375 
L 19.828125 46.734375 
Q 21.96875 47.46875 24.109375 47.828125 
Q 26.265625 48.1875 28.421875 48.1875 
Q 40.625 48.1875 47.75 41.5 
Q 54.890625 34.8125 54.890625 23.390625 
Q 54.890625 11.625 47.5625 5.09375 
Q 40.234375 -1.421875 26.90625 -1.421875 
Q 22.3125 -1.421875 17.546875 -0.640625 
Q 12.796875 0.140625 7.71875 1.703125 
L 7.71875 11.625 
Q 12.109375 9.234375 16.796875 8.0625 
Q 21.484375 6.890625 26.703125 6.890625 
Q 35.15625 6.890625 40.078125 11.328125 
Q 45.015625 15.765625 45.015625 23.390625 
Q 45.015625 31 40.078125 35.4375 
Q 35.15625 39.890625 26.703125 39.890625 
Q 22.75 39.890625 18.8125 39.015625 
Q 14.890625 38.140625 10.796875 36.28125 
z
" id="DejaVuSans-53"/>
      </defs>
      <g style="fill:#555555;" transform="translate(148.897854 256.180187)scale(0.1 -0.1)">
       <use xlink:href="#DejaVuSans-49"/>
       <use x="63.623047" xlink:href="#DejaVuSans-53"/>
       <use x="127.246094" xlink:href="#DejaVuSans-48"/>
      </g>
     </g>
    </g>
    <g id="xtick_3">
     <g id="line2d_5">
      <path clip-path="url(#p9691cd9385)" d="M 213.929636 241.58175 
L 213.929636 24.14175 
" style="fill:none;stroke:#ffffff;stroke-linecap:square;stroke-width:0.8;"/>
     </g>
     <g id="line2d_6">
      <g>
       <use style="fill:#555555;stroke:#555555;stroke-width:0.8;" x="213.929636" xlink:href="#m6ad34fd485" y="241.58175"/>
      </g>
     </g>
     <g id="text_3">
      <!-- 200 -->
      <defs>
       <path d="M 19.1875 8.296875 
L 53.609375 8.296875 
L 53.609375 0 
L 7.328125 0 
L 7.328125 8.296875 
Q 12.9375 14.109375 22.625 23.890625 
Q 32.328125 33.6875 34.8125 36.53125 
Q 39.546875 41.84375 41.421875 45.53125 
Q 43.3125 49.21875 43.3125 52.78125 
Q 43.3125 58.59375 39.234375 62.25 
Q 35.15625 65.921875 28.609375 65.921875 
Q 23.96875 65.921875 18.8125 64.3125 
Q 13.671875 62.703125 7.8125 59.421875 
L 7.8125 69.390625 
Q 13.765625 71.78125 18.9375 73 
Q 24.125 74.21875 28.421875 74.21875 
Q 39.75 74.21875 46.484375 68.546875 
Q 53.21875 62.890625 53.21875 53.421875 
Q 53.21875 48.921875 51.53125 44.890625 
Q 49.859375 40.875 45.40625 35.40625 
Q 44.1875 33.984375 37.640625 27.21875 
Q 31.109375 20.453125 19.1875 8.296875 
z
" id="DejaVuSans-50"/>
      </defs>
      <g style="fill:#555555;" transform="translate(204.385886 256.180187)scale(0.1 -0.1)">
       <use xlink:href="#DejaVuSans-50"/>
       <use x="63.623047" xlink:href="#DejaVuSans-48"/>
       <use x="127.246094" xlink:href="#DejaVuSans-48"/>
      </g>
     </g>
    </g>
    <g id="xtick_4">
     <g id="line2d_7">
      <path clip-path="url(#p9691cd9385)" d="M 269.417669 241.58175 
L 269.417669 24.14175 
" style="fill:none;stroke:#ffffff;stroke-linecap:square;stroke-width:0.8;"/>
     </g>
     <g id="line2d_8">
      <g>
       <use style="fill:#555555;stroke:#555555;stroke-width:0.8;" x="269.417669" xlink:href="#m6ad34fd485" y="241.58175"/>
      </g>
     </g>
     <g id="text_4">
      <!-- 250 -->
      <g style="fill:#555555;" transform="translate(259.873919 256.180187)scale(0.1 -0.1)">
       <use xlink:href="#DejaVuSans-50"/>
       <use x="63.623047" xlink:href="#DejaVuSans-53"/>
       <use x="127.246094" xlink:href="#DejaVuSans-48"/>
      </g>
     </g>
    </g>
    <g id="xtick_5">
     <g id="line2d_9">
      <path clip-path="url(#p9691cd9385)" d="M 324.905701 241.58175 
L 324.905701 24.14175 
" style="fill:none;stroke:#ffffff;stroke-linecap:square;stroke-width:0.8;"/>
     </g>
     <g id="line2d_10">
      <g>
       <use style="fill:#555555;stroke:#555555;stroke-width:0.8;" x="324.905701" xlink:href="#m6ad34fd485" y="241.58175"/>
      </g>
     </g>
     <g id="text_5">
      <!-- 300 -->
      <defs>
       <path d="M 40.578125 39.3125 
Q 47.65625 37.796875 51.625 33 
Q 55.609375 28.21875 55.609375 21.1875 
Q 55.609375 10.40625 48.1875 4.484375 
Q 40.765625 -1.421875 27.09375 -1.421875 
Q 22.515625 -1.421875 17.65625 -0.515625 
Q 12.796875 0.390625 7.625 2.203125 
L 7.625 11.71875 
Q 11.71875 9.328125 16.59375 8.109375 
Q 21.484375 6.890625 26.8125 6.890625 
Q 36.078125 6.890625 40.9375 10.546875 
Q 45.796875 14.203125 45.796875 21.1875 
Q 45.796875 27.640625 41.28125 31.265625 
Q 36.765625 34.90625 28.71875 34.90625 
L 20.21875 34.90625 
L 20.21875 43.015625 
L 29.109375 43.015625 
Q 36.375 43.015625 40.234375 45.921875 
Q 44.09375 48.828125 44.09375 54.296875 
Q 44.09375 59.90625 40.109375 62.90625 
Q 36.140625 65.921875 28.71875 65.921875 
Q 24.65625 65.921875 20.015625 65.03125 
Q 15.375 64.15625 9.8125 62.3125 
L 9.8125 71.09375 
Q 15.4375 72.65625 20.34375 73.4375 
Q 25.25 74.21875 29.59375 74.21875 
Q 40.828125 74.21875 47.359375 69.109375 
Q 53.90625 64.015625 53.90625 55.328125 
Q 53.90625 49.265625 50.4375 45.09375 
Q 46.96875 40.921875 40.578125 39.3125 
z
" id="DejaVuSans-51"/>
      </defs>
      <g style="fill:#555555;" transform="translate(315.361951 256.180187)scale(0.1 -0.1)">
       <use xlink:href="#DejaVuSans-51"/>
       <use x="63.623047" xlink:href="#DejaVuSans-48"/>
       <use x="127.246094" xlink:href="#DejaVuSans-48"/>
      </g>
     </g>
    </g>
    <g id="xtick_6">
     <g id="line2d_11">
      <path clip-path="url(#p9691cd9385)" d="M 380.393733 241.58175 
L 380.393733 24.14175 
" style="fill:none;stroke:#ffffff;stroke-linecap:square;stroke-width:0.8;"/>
     </g>
     <g id="line2d_12">
      <g>
       <use style="fill:#555555;stroke:#555555;stroke-width:0.8;" x="380.393733" xlink:href="#m6ad34fd485" y="241.58175"/>
      </g>
     </g>
     <g id="text_6">
      <!-- 350 -->
      <g style="fill:#555555;" transform="translate(370.849983 256.180187)scale(0.1 -0.1)">
       <use xlink:href="#DejaVuSans-51"/>
       <use x="63.623047" xlink:href="#DejaVuSans-53"/>
       <use x="127.246094" xlink:href="#DejaVuSans-48"/>
      </g>
     </g>
    </g>
    <g id="text_7">
     <!-- Average monthly hours worked -->
     <defs>
      <path d="M 34.1875 63.1875 
L 20.796875 26.90625 
L 47.609375 26.90625 
z
M 28.609375 72.90625 
L 39.796875 72.90625 
L 67.578125 0 
L 57.328125 0 
L 50.6875 18.703125 
L 17.828125 18.703125 
L 11.1875 0 
L 0.78125 0 
z
" id="DejaVuSans-65"/>
      <path d="M 2.984375 54.6875 
L 12.5 54.6875 
L 29.59375 8.796875 
L 46.6875 54.6875 
L 56.203125 54.6875 
L 35.6875 0 
L 23.484375 0 
z
" id="DejaVuSans-118"/>
      <path d="M 56.203125 29.59375 
L 56.203125 25.203125 
L 14.890625 25.203125 
Q 15.484375 15.921875 20.484375 11.0625 
Q 25.484375 6.203125 34.421875 6.203125 
Q 39.59375 6.203125 44.453125 7.46875 
Q 49.3125 8.734375 54.109375 11.28125 
L 54.109375 2.78125 
Q 49.265625 0.734375 44.1875 -0.34375 
Q 39.109375 -1.421875 33.890625 -1.421875 
Q 20.796875 -1.421875 13.15625 6.1875 
Q 5.515625 13.8125 5.515625 26.8125 
Q 5.515625 40.234375 12.765625 48.109375 
Q 20.015625 56 32.328125 56 
Q 43.359375 56 49.78125 48.890625 
Q 56.203125 41.796875 56.203125 29.59375 
z
M 47.21875 32.234375 
Q 47.125 39.59375 43.09375 43.984375 
Q 39.0625 48.390625 32.421875 48.390625 
Q 24.90625 48.390625 20.390625 44.140625 
Q 15.875 39.890625 15.1875 32.171875 
z
" id="DejaVuSans-101"/>
      <path d="M 41.109375 46.296875 
Q 39.59375 47.171875 37.8125 47.578125 
Q 36.03125 48 33.890625 48 
Q 26.265625 48 22.1875 43.046875 
Q 18.109375 38.09375 18.109375 28.8125 
L 18.109375 0 
L 9.078125 0 
L 9.078125 54.6875 
L 18.109375 54.6875 
L 18.109375 46.1875 
Q 20.953125 51.171875 25.484375 53.578125 
Q 30.03125 56 36.53125 56 
Q 37.453125 56 38.578125 55.875 
Q 39.703125 55.765625 41.0625 55.515625 
z
" id="DejaVuSans-114"/>
      <path d="M 34.28125 27.484375 
Q 23.390625 27.484375 19.1875 25 
Q 14.984375 22.515625 14.984375 16.5 
Q 14.984375 11.71875 18.140625 8.90625 
Q 21.296875 6.109375 26.703125 6.109375 
Q 34.1875 6.109375 38.703125 11.40625 
Q 43.21875 16.703125 43.21875 25.484375 
L 43.21875 27.484375 
z
M 52.203125 31.203125 
L 52.203125 0 
L 43.21875 0 
L 43.21875 8.296875 
Q 40.140625 3.328125 35.546875 0.953125 
Q 30.953125 -1.421875 24.3125 -1.421875 
Q 15.921875 -1.421875 10.953125 3.296875 
Q 6 8.015625 6 15.921875 
Q 6 25.140625 12.171875 29.828125 
Q 18.359375 34.515625 30.609375 34.515625 
L 43.21875 34.515625 
L 43.21875 35.40625 
Q 43.21875 41.609375 39.140625 45 
Q 35.0625 48.390625 27.6875 48.390625 
Q 23 48.390625 18.546875 47.265625 
Q 14.109375 46.140625 10.015625 43.890625 
L 10.015625 52.203125 
Q 14.9375 54.109375 19.578125 55.046875 
Q 24.21875 56 28.609375 56 
Q 40.484375 56 46.34375 49.84375 
Q 52.203125 43.703125 52.203125 31.203125 
z
" id="DejaVuSans-97"/>
      <path d="M 45.40625 27.984375 
Q 45.40625 37.75 41.375 43.109375 
Q 37.359375 48.484375 30.078125 48.484375 
Q 22.859375 48.484375 18.828125 43.109375 
Q 14.796875 37.75 14.796875 27.984375 
Q 14.796875 18.265625 18.828125 12.890625 
Q 22.859375 7.515625 30.078125 7.515625 
Q 37.359375 7.515625 41.375 12.890625 
Q 45.40625 18.265625 45.40625 27.984375 
z
M 54.390625 6.78125 
Q 54.390625 -7.171875 48.1875 -13.984375 
Q 42 -20.796875 29.203125 -20.796875 
Q 24.46875 -20.796875 20.265625 -20.09375 
Q 16.0625 -19.390625 12.109375 -17.921875 
L 12.109375 -9.1875 
Q 16.0625 -11.328125 19.921875 -12.34375 
Q 23.78125 -13.375 27.78125 -13.375 
Q 36.625 -13.375 41.015625 -8.765625 
Q 45.40625 -4.15625 45.40625 5.171875 
L 45.40625 9.625 
Q 42.625 4.78125 38.28125 2.390625 
Q 33.9375 0 27.875 0 
Q 17.828125 0 11.671875 7.65625 
Q 5.515625 15.328125 5.515625 27.984375 
Q 5.515625 40.671875 11.671875 48.328125 
Q 17.828125 56 27.875 56 
Q 33.9375 56 38.28125 53.609375 
Q 42.625 51.21875 45.40625 46.390625 
L 45.40625 54.6875 
L 54.390625 54.6875 
z
" id="DejaVuSans-103"/>
      <path id="DejaVuSans-32"/>
      <path d="M 52 44.1875 
Q 55.375 50.25 60.0625 53.125 
Q 64.75 56 71.09375 56 
Q 79.640625 56 84.28125 50.015625 
Q 88.921875 44.046875 88.921875 33.015625 
L 88.921875 0 
L 79.890625 0 
L 79.890625 32.71875 
Q 79.890625 40.578125 77.09375 44.375 
Q 74.3125 48.1875 68.609375 48.1875 
Q 61.625 48.1875 57.5625 43.546875 
Q 53.515625 38.921875 53.515625 30.90625 
L 53.515625 0 
L 44.484375 0 
L 44.484375 32.71875 
Q 44.484375 40.625 41.703125 44.40625 
Q 38.921875 48.1875 33.109375 48.1875 
Q 26.21875 48.1875 22.15625 43.53125 
Q 18.109375 38.875 18.109375 30.90625 
L 18.109375 0 
L 9.078125 0 
L 9.078125 54.6875 
L 18.109375 54.6875 
L 18.109375 46.1875 
Q 21.1875 51.21875 25.484375 53.609375 
Q 29.78125 56 35.6875 56 
Q 41.65625 56 45.828125 52.96875 
Q 50 49.953125 52 44.1875 
z
" id="DejaVuSans-109"/>
      <path d="M 30.609375 48.390625 
Q 23.390625 48.390625 19.1875 42.75 
Q 14.984375 37.109375 14.984375 27.296875 
Q 14.984375 17.484375 19.15625 11.84375 
Q 23.34375 6.203125 30.609375 6.203125 
Q 37.796875 6.203125 41.984375 11.859375 
Q 46.1875 17.53125 46.1875 27.296875 
Q 46.1875 37.015625 41.984375 42.703125 
Q 37.796875 48.390625 30.609375 48.390625 
z
M 30.609375 56 
Q 42.328125 56 49.015625 48.375 
Q 55.71875 40.765625 55.71875 27.296875 
Q 55.71875 13.875 49.015625 6.21875 
Q 42.328125 -1.421875 30.609375 -1.421875 
Q 18.84375 -1.421875 12.171875 6.21875 
Q 5.515625 13.875 5.515625 27.296875 
Q 5.515625 40.765625 12.171875 48.375 
Q 18.84375 56 30.609375 56 
z
" id="DejaVuSans-111"/>
      <path d="M 54.890625 33.015625 
L 54.890625 0 
L 45.90625 0 
L 45.90625 32.71875 
Q 45.90625 40.484375 42.875 44.328125 
Q 39.84375 48.1875 33.796875 48.1875 
Q 26.515625 48.1875 22.3125 43.546875 
Q 18.109375 38.921875 18.109375 30.90625 
L 18.109375 0 
L 9.078125 0 
L 9.078125 54.6875 
L 18.109375 54.6875 
L 18.109375 46.1875 
Q 21.34375 51.125 25.703125 53.5625 
Q 30.078125 56 35.796875 56 
Q 45.21875 56 50.046875 50.171875 
Q 54.890625 44.34375 54.890625 33.015625 
z
" id="DejaVuSans-110"/>
      <path d="M 18.3125 70.21875 
L 18.3125 54.6875 
L 36.8125 54.6875 
L 36.8125 47.703125 
L 18.3125 47.703125 
L 18.3125 18.015625 
Q 18.3125 11.328125 20.140625 9.421875 
Q 21.96875 7.515625 27.59375 7.515625 
L 36.8125 7.515625 
L 36.8125 0 
L 27.59375 0 
Q 17.1875 0 13.234375 3.875 
Q 9.28125 7.765625 9.28125 18.015625 
L 9.28125 47.703125 
L 2.6875 47.703125 
L 2.6875 54.6875 
L 9.28125 54.6875 
L 9.28125 70.21875 
z
" id="DejaVuSans-116"/>
      <path d="M 54.890625 33.015625 
L 54.890625 0 
L 45.90625 0 
L 45.90625 32.71875 
Q 45.90625 40.484375 42.875 44.328125 
Q 39.84375 48.1875 33.796875 48.1875 
Q 26.515625 48.1875 22.3125 43.546875 
Q 18.109375 38.921875 18.109375 30.90625 
L 18.109375 0 
L 9.078125 0 
L 9.078125 75.984375 
L 18.109375 75.984375 
L 18.109375 46.1875 
Q 21.34375 51.125 25.703125 53.5625 
Q 30.078125 56 35.796875 56 
Q 45.21875 56 50.046875 50.171875 
Q 54.890625 44.34375 54.890625 33.015625 
z
" id="DejaVuSans-104"/>
      <path d="M 9.421875 75.984375 
L 18.40625 75.984375 
L 18.40625 0 
L 9.421875 0 
z
" id="DejaVuSans-108"/>
      <path d="M 32.171875 -5.078125 
Q 28.375 -14.84375 24.75 -17.8125 
Q 21.140625 -20.796875 15.09375 -20.796875 
L 7.90625 -20.796875 
L 7.90625 -13.28125 
L 13.1875 -13.28125 
Q 16.890625 -13.28125 18.9375 -11.515625 
Q 21 -9.765625 23.484375 -3.21875 
L 25.09375 0.875 
L 2.984375 54.6875 
L 12.5 54.6875 
L 29.59375 11.921875 
L 46.6875 54.6875 
L 56.203125 54.6875 
z
" id="DejaVuSans-121"/>
      <path d="M 8.5 21.578125 
L 8.5 54.6875 
L 17.484375 54.6875 
L 17.484375 21.921875 
Q 17.484375 14.15625 20.5 10.265625 
Q 23.53125 6.390625 29.59375 6.390625 
Q 36.859375 6.390625 41.078125 11.03125 
Q 45.3125 15.671875 45.3125 23.6875 
L 45.3125 54.6875 
L 54.296875 54.6875 
L 54.296875 0 
L 45.3125 0 
L 45.3125 8.40625 
Q 42.046875 3.421875 37.71875 1 
Q 33.40625 -1.421875 27.6875 -1.421875 
Q 18.265625 -1.421875 13.375 4.4375 
Q 8.5 10.296875 8.5 21.578125 
z
M 31.109375 56 
z
" id="DejaVuSans-117"/>
      <path d="M 44.28125 53.078125 
L 44.28125 44.578125 
Q 40.484375 46.53125 36.375 47.5 
Q 32.28125 48.484375 27.875 48.484375 
Q 21.1875 48.484375 17.84375 46.4375 
Q 14.5 44.390625 14.5 40.28125 
Q 14.5 37.15625 16.890625 35.375 
Q 19.28125 33.59375 26.515625 31.984375 
L 29.59375 31.296875 
Q 39.15625 29.25 43.1875 25.515625 
Q 47.21875 21.78125 47.21875 15.09375 
Q 47.21875 7.46875 41.1875 3.015625 
Q 35.15625 -1.421875 24.609375 -1.421875 
Q 20.21875 -1.421875 15.453125 -0.5625 
Q 10.6875 0.296875 5.421875 2 
L 5.421875 11.28125 
Q 10.40625 8.6875 15.234375 7.390625 
Q 20.0625 6.109375 24.8125 6.109375 
Q 31.15625 6.109375 34.5625 8.28125 
Q 37.984375 10.453125 37.984375 14.40625 
Q 37.984375 18.0625 35.515625 20.015625 
Q 33.0625 21.96875 24.703125 23.78125 
L 21.578125 24.515625 
Q 13.234375 26.265625 9.515625 29.90625 
Q 5.8125 33.546875 5.8125 39.890625 
Q 5.8125 47.609375 11.28125 51.796875 
Q 16.75 56 26.8125 56 
Q 31.78125 56 36.171875 55.265625 
Q 40.578125 54.546875 44.28125 53.078125 
z
" id="DejaVuSans-115"/>
      <path d="M 4.203125 54.6875 
L 13.1875 54.6875 
L 24.421875 12.015625 
L 35.59375 54.6875 
L 46.1875 54.6875 
L 57.421875 12.015625 
L 68.609375 54.6875 
L 77.59375 54.6875 
L 63.28125 0 
L 52.6875 0 
L 40.921875 44.828125 
L 29.109375 0 
L 18.5 0 
z
" id="DejaVuSans-119"/>
      <path d="M 9.078125 75.984375 
L 18.109375 75.984375 
L 18.109375 31.109375 
L 44.921875 54.6875 
L 56.390625 54.6875 
L 27.390625 29.109375 
L 57.625 0 
L 45.90625 0 
L 18.109375 26.703125 
L 18.109375 0 
L 9.078125 0 
z
" id="DejaVuSans-107"/>
      <path d="M 45.40625 46.390625 
L 45.40625 75.984375 
L 54.390625 75.984375 
L 54.390625 0 
L 45.40625 0 
L 45.40625 8.203125 
Q 42.578125 3.328125 38.25 0.953125 
Q 33.9375 -1.421875 27.875 -1.421875 
Q 17.96875 -1.421875 11.734375 6.484375 
Q 5.515625 14.40625 5.515625 27.296875 
Q 5.515625 40.1875 11.734375 48.09375 
Q 17.96875 56 27.875 56 
Q 33.9375 56 38.25 53.625 
Q 42.578125 51.265625 45.40625 46.390625 
z
M 14.796875 27.296875 
Q 14.796875 17.390625 18.875 11.75 
Q 22.953125 6.109375 30.078125 6.109375 
Q 37.203125 6.109375 41.296875 11.75 
Q 45.40625 17.390625 45.40625 27.296875 
Q 45.40625 37.203125 41.296875 42.84375 
Q 37.203125 48.484375 30.078125 48.484375 
Q 22.953125 48.484375 18.875 42.84375 
Q 14.796875 37.203125 14.796875 27.296875 
z
" id="DejaVuSans-100"/>
     </defs>
     <g style="fill:#555555;" transform="translate(131.5575 271.378)scale(0.12 -0.12)">
      <use xlink:href="#DejaVuSans-65"/>
      <use x="68.330078" xlink:href="#DejaVuSans-118"/>
      <use x="127.509766" xlink:href="#DejaVuSans-101"/>
      <use x="189.033203" xlink:href="#DejaVuSans-114"/>
      <use x="230.146484" xlink:href="#DejaVuSans-97"/>
      <use x="291.425781" xlink:href="#DejaVuSans-103"/>
      <use x="354.902344" xlink:href="#DejaVuSans-101"/>
      <use x="416.425781" xlink:href="#DejaVuSans-32"/>
      <use x="448.212891" xlink:href="#DejaVuSans-109"/>
      <use x="545.625" xlink:href="#DejaVuSans-111"/>
      <use x="606.806641" xlink:href="#DejaVuSans-110"/>
      <use x="670.185547" xlink:href="#DejaVuSans-116"/>
      <use x="709.394531" xlink:href="#DejaVuSans-104"/>
      <use x="772.773438" xlink:href="#DejaVuSans-108"/>
      <use x="800.556641" xlink:href="#DejaVuSans-121"/>
      <use x="859.736328" xlink:href="#DejaVuSans-32"/>
      <use x="891.523438" xlink:href="#DejaVuSans-104"/>
      <use x="954.902344" xlink:href="#DejaVuSans-111"/>
      <use x="1016.083984" xlink:href="#DejaVuSans-117"/>
      <use x="1079.462891" xlink:href="#DejaVuSans-114"/>
      <use x="1120.576172" xlink:href="#DejaVuSans-115"/>
      <use x="1172.675781" xlink:href="#DejaVuSans-32"/>
      <use x="1204.462891" xlink:href="#DejaVuSans-119"/>
      <use x="1286.25" xlink:href="#DejaVuSans-111"/>
      <use x="1347.431641" xlink:href="#DejaVuSans-114"/>
      <use x="1388.544922" xlink:href="#DejaVuSans-107"/>
      <use x="1446.408203" xlink:href="#DejaVuSans-101"/>
      <use x="1507.931641" xlink:href="#DejaVuSans-100"/>
     </g>
    </g>
   </g>
   <g id="matplotlib.axis_2">
    <g id="ytick_1">
     <g id="line2d_13">
      <path clip-path="url(#p9691cd9385)" d="M 58.441875 241.58175 
L 393.241875 241.58175 
" style="fill:none;stroke:#ffffff;stroke-linecap:square;stroke-width:0.8;"/>
     </g>
     <g id="line2d_14">
      <defs>
       <path d="M 0 0 
L -3.5 0 
" id="m6afc8b353b" style="stroke:#555555;stroke-width:0.8;"/>
      </defs>
      <g>
       <use style="fill:#555555;stroke:#555555;stroke-width:0.8;" x="58.441875" xlink:href="#m6afc8b353b" y="241.58175"/>
      </g>
     </g>
     <g id="text_8">
      <!-- 0.000 -->
      <defs>
       <path d="M 10.6875 12.40625 
L 21 12.40625 
L 21 0 
L 10.6875 0 
z
" id="DejaVuSans-46"/>
      </defs>
      <g style="fill:#555555;" transform="translate(22.81375 245.380969)scale(0.1 -0.1)">
       <use xlink:href="#DejaVuSans-48"/>
       <use x="63.623047" xlink:href="#DejaVuSans-46"/>
       <use x="95.410156" xlink:href="#DejaVuSans-48"/>
       <use x="159.033203" xlink:href="#DejaVuSans-48"/>
       <use x="222.65625" xlink:href="#DejaVuSans-48"/>
      </g>
     </g>
    </g>
    <g id="ytick_2">
     <g id="line2d_15">
      <path clip-path="url(#p9691cd9385)" d="M 58.441875 202.488062 
L 393.241875 202.488062 
" style="fill:none;stroke:#ffffff;stroke-linecap:square;stroke-width:0.8;"/>
     </g>
     <g id="line2d_16">
      <g>
       <use style="fill:#555555;stroke:#555555;stroke-width:0.8;" x="58.441875" xlink:href="#m6afc8b353b" y="202.488062"/>
      </g>
     </g>
     <g id="text_9">
      <!-- 0.002 -->
      <g style="fill:#555555;" transform="translate(22.81375 206.28728)scale(0.1 -0.1)">
       <use xlink:href="#DejaVuSans-48"/>
       <use x="63.623047" xlink:href="#DejaVuSans-46"/>
       <use x="95.410156" xlink:href="#DejaVuSans-48"/>
       <use x="159.033203" xlink:href="#DejaVuSans-48"/>
       <use x="222.65625" xlink:href="#DejaVuSans-50"/>
      </g>
     </g>
    </g>
    <g id="ytick_3">
     <g id="line2d_17">
      <path clip-path="url(#p9691cd9385)" d="M 58.441875 163.394373 
L 393.241875 163.394373 
" style="fill:none;stroke:#ffffff;stroke-linecap:square;stroke-width:0.8;"/>
     </g>
     <g id="line2d_18">
      <g>
       <use style="fill:#555555;stroke:#555555;stroke-width:0.8;" x="58.441875" xlink:href="#m6afc8b353b" y="163.394373"/>
      </g>
     </g>
     <g id="text_10">
      <!-- 0.004 -->
      <defs>
       <path d="M 37.796875 64.3125 
L 12.890625 25.390625 
L 37.796875 25.390625 
z
M 35.203125 72.90625 
L 47.609375 72.90625 
L 47.609375 25.390625 
L 58.015625 25.390625 
L 58.015625 17.1875 
L 47.609375 17.1875 
L 47.609375 0 
L 37.796875 0 
L 37.796875 17.1875 
L 4.890625 17.1875 
L 4.890625 26.703125 
z
" id="DejaVuSans-52"/>
      </defs>
      <g style="fill:#555555;" transform="translate(22.81375 167.193592)scale(0.1 -0.1)">
       <use xlink:href="#DejaVuSans-48"/>
       <use x="63.623047" xlink:href="#DejaVuSans-46"/>
       <use x="95.410156" xlink:href="#DejaVuSans-48"/>
       <use x="159.033203" xlink:href="#DejaVuSans-48"/>
       <use x="222.65625" xlink:href="#DejaVuSans-52"/>
      </g>
     </g>
    </g>
    <g id="ytick_4">
     <g id="line2d_19">
      <path clip-path="url(#p9691cd9385)" d="M 58.441875 124.300685 
L 393.241875 124.300685 
" style="fill:none;stroke:#ffffff;stroke-linecap:square;stroke-width:0.8;"/>
     </g>
     <g id="line2d_20">
      <g>
       <use style="fill:#555555;stroke:#555555;stroke-width:0.8;" x="58.441875" xlink:href="#m6afc8b353b" y="124.300685"/>
      </g>
     </g>
     <g id="text_11">
      <!-- 0.006 -->
      <defs>
       <path d="M 33.015625 40.375 
Q 26.375 40.375 22.484375 35.828125 
Q 18.609375 31.296875 18.609375 23.390625 
Q 18.609375 15.53125 22.484375 10.953125 
Q 26.375 6.390625 33.015625 6.390625 
Q 39.65625 6.390625 43.53125 10.953125 
Q 47.40625 15.53125 47.40625 23.390625 
Q 47.40625 31.296875 43.53125 35.828125 
Q 39.65625 40.375 33.015625 40.375 
z
M 52.59375 71.296875 
L 52.59375 62.3125 
Q 48.875 64.0625 45.09375 64.984375 
Q 41.3125 65.921875 37.59375 65.921875 
Q 27.828125 65.921875 22.671875 59.328125 
Q 17.53125 52.734375 16.796875 39.40625 
Q 19.671875 43.65625 24.015625 45.921875 
Q 28.375 48.1875 33.59375 48.1875 
Q 44.578125 48.1875 50.953125 41.515625 
Q 57.328125 34.859375 57.328125 23.390625 
Q 57.328125 12.15625 50.6875 5.359375 
Q 44.046875 -1.421875 33.015625 -1.421875 
Q 20.359375 -1.421875 13.671875 8.265625 
Q 6.984375 17.96875 6.984375 36.375 
Q 6.984375 53.65625 15.1875 63.9375 
Q 23.390625 74.21875 37.203125 74.21875 
Q 40.921875 74.21875 44.703125 73.484375 
Q 48.484375 72.75 52.59375 71.296875 
z
" id="DejaVuSans-54"/>
      </defs>
      <g style="fill:#555555;" transform="translate(22.81375 128.099904)scale(0.1 -0.1)">
       <use xlink:href="#DejaVuSans-48"/>
       <use x="63.623047" xlink:href="#DejaVuSans-46"/>
       <use x="95.410156" xlink:href="#DejaVuSans-48"/>
       <use x="159.033203" xlink:href="#DejaVuSans-48"/>
       <use x="222.65625" xlink:href="#DejaVuSans-54"/>
      </g>
     </g>
    </g>
    <g id="ytick_5">
     <g id="line2d_21">
      <path clip-path="url(#p9691cd9385)" d="M 58.441875 85.206997 
L 393.241875 85.206997 
" style="fill:none;stroke:#ffffff;stroke-linecap:square;stroke-width:0.8;"/>
     </g>
     <g id="line2d_22">
      <g>
       <use style="fill:#555555;stroke:#555555;stroke-width:0.8;" x="58.441875" xlink:href="#m6afc8b353b" y="85.206997"/>
      </g>
     </g>
     <g id="text_12">
      <!-- 0.008 -->
      <defs>
       <path d="M 31.78125 34.625 
Q 24.75 34.625 20.71875 30.859375 
Q 16.703125 27.09375 16.703125 20.515625 
Q 16.703125 13.921875 20.71875 10.15625 
Q 24.75 6.390625 31.78125 6.390625 
Q 38.8125 6.390625 42.859375 10.171875 
Q 46.921875 13.96875 46.921875 20.515625 
Q 46.921875 27.09375 42.890625 30.859375 
Q 38.875 34.625 31.78125 34.625 
z
M 21.921875 38.8125 
Q 15.578125 40.375 12.03125 44.71875 
Q 8.5 49.078125 8.5 55.328125 
Q 8.5 64.0625 14.71875 69.140625 
Q 20.953125 74.21875 31.78125 74.21875 
Q 42.671875 74.21875 48.875 69.140625 
Q 55.078125 64.0625 55.078125 55.328125 
Q 55.078125 49.078125 51.53125 44.71875 
Q 48 40.375 41.703125 38.8125 
Q 48.828125 37.15625 52.796875 32.3125 
Q 56.78125 27.484375 56.78125 20.515625 
Q 56.78125 9.90625 50.3125 4.234375 
Q 43.84375 -1.421875 31.78125 -1.421875 
Q 19.734375 -1.421875 13.25 4.234375 
Q 6.78125 9.90625 6.78125 20.515625 
Q 6.78125 27.484375 10.78125 32.3125 
Q 14.796875 37.15625 21.921875 38.8125 
z
M 18.3125 54.390625 
Q 18.3125 48.734375 21.84375 45.5625 
Q 25.390625 42.390625 31.78125 42.390625 
Q 38.140625 42.390625 41.71875 45.5625 
Q 45.3125 48.734375 45.3125 54.390625 
Q 45.3125 60.0625 41.71875 63.234375 
Q 38.140625 66.40625 31.78125 66.40625 
Q 25.390625 66.40625 21.84375 63.234375 
Q 18.3125 60.0625 18.3125 54.390625 
z
" id="DejaVuSans-56"/>
      </defs>
      <g style="fill:#555555;" transform="translate(22.81375 89.006216)scale(0.1 -0.1)">
       <use xlink:href="#DejaVuSans-48"/>
       <use x="63.623047" xlink:href="#DejaVuSans-46"/>
       <use x="95.410156" xlink:href="#DejaVuSans-48"/>
       <use x="159.033203" xlink:href="#DejaVuSans-48"/>
       <use x="222.65625" xlink:href="#DejaVuSans-56"/>
      </g>
     </g>
    </g>
    <g id="ytick_6">
     <g id="line2d_23">
      <path clip-path="url(#p9691cd9385)" d="M 58.441875 46.113309 
L 393.241875 46.113309 
" style="fill:none;stroke:#ffffff;stroke-linecap:square;stroke-width:0.8;"/>
     </g>
     <g id="line2d_24">
      <g>
       <use style="fill:#555555;stroke:#555555;stroke-width:0.8;" x="58.441875" xlink:href="#m6afc8b353b" y="46.113309"/>
      </g>
     </g>
     <g id="text_13">
      <!-- 0.010 -->
      <g style="fill:#555555;" transform="translate(22.81375 49.912527)scale(0.1 -0.1)">
       <use xlink:href="#DejaVuSans-48"/>
       <use x="63.623047" xlink:href="#DejaVuSans-46"/>
       <use x="95.410156" xlink:href="#DejaVuSans-48"/>
       <use x="159.033203" xlink:href="#DejaVuSans-49"/>
       <use x="222.65625" xlink:href="#DejaVuSans-48"/>
      </g>
     </g>
    </g>
    <g id="text_14">
     <!-- Percentage of data -->
     <defs>
      <path d="M 19.671875 64.796875 
L 19.671875 37.40625 
L 32.078125 37.40625 
Q 38.96875 37.40625 42.71875 40.96875 
Q 46.484375 44.53125 46.484375 51.125 
Q 46.484375 57.671875 42.71875 61.234375 
Q 38.96875 64.796875 32.078125 64.796875 
z
M 9.8125 72.90625 
L 32.078125 72.90625 
Q 44.34375 72.90625 50.609375 67.359375 
Q 56.890625 61.8125 56.890625 51.125 
Q 56.890625 40.328125 50.609375 34.8125 
Q 44.34375 29.296875 32.078125 29.296875 
L 19.671875 29.296875 
L 19.671875 0 
L 9.8125 0 
z
" id="DejaVuSans-80"/>
      <path d="M 48.78125 52.59375 
L 48.78125 44.1875 
Q 44.96875 46.296875 41.140625 47.34375 
Q 37.3125 48.390625 33.40625 48.390625 
Q 24.65625 48.390625 19.8125 42.84375 
Q 14.984375 37.3125 14.984375 27.296875 
Q 14.984375 17.28125 19.8125 11.734375 
Q 24.65625 6.203125 33.40625 6.203125 
Q 37.3125 6.203125 41.140625 7.25 
Q 44.96875 8.296875 48.78125 10.40625 
L 48.78125 2.09375 
Q 45.015625 0.34375 40.984375 -0.53125 
Q 36.96875 -1.421875 32.421875 -1.421875 
Q 20.0625 -1.421875 12.78125 6.34375 
Q 5.515625 14.109375 5.515625 27.296875 
Q 5.515625 40.671875 12.859375 48.328125 
Q 20.21875 56 33.015625 56 
Q 37.15625 56 41.109375 55.140625 
Q 45.0625 54.296875 48.78125 52.59375 
z
" id="DejaVuSans-99"/>
      <path d="M 37.109375 75.984375 
L 37.109375 68.5 
L 28.515625 68.5 
Q 23.6875 68.5 21.796875 66.546875 
Q 19.921875 64.59375 19.921875 59.515625 
L 19.921875 54.6875 
L 34.71875 54.6875 
L 34.71875 47.703125 
L 19.921875 47.703125 
L 19.921875 0 
L 10.890625 0 
L 10.890625 47.703125 
L 2.296875 47.703125 
L 2.296875 54.6875 
L 10.890625 54.6875 
L 10.890625 58.5 
Q 10.890625 67.625 15.140625 71.796875 
Q 19.390625 75.984375 28.609375 75.984375 
z
" id="DejaVuSans-102"/>
     </defs>
     <g style="fill:#555555;" transform="translate(16.318125 190.068938)rotate(-90)scale(0.12 -0.12)">
      <use xlink:href="#DejaVuSans-80"/>
      <use x="60.255859" xlink:href="#DejaVuSans-101"/>
      <use x="121.779297" xlink:href="#DejaVuSans-114"/>
      <use x="162.861328" xlink:href="#DejaVuSans-99"/>
      <use x="217.841797" xlink:href="#DejaVuSans-101"/>
      <use x="279.365234" xlink:href="#DejaVuSans-110"/>
      <use x="342.744141" xlink:href="#DejaVuSans-116"/>
      <use x="381.953125" xlink:href="#DejaVuSans-97"/>
      <use x="443.232422" xlink:href="#DejaVuSans-103"/>
      <use x="506.708984" xlink:href="#DejaVuSans-101"/>
      <use x="568.232422" xlink:href="#DejaVuSans-32"/>
      <use x="600.019531" xlink:href="#DejaVuSans-111"/>
      <use x="661.201172" xlink:href="#DejaVuSans-102"/>
      <use x="696.40625" xlink:href="#DejaVuSans-32"/>
      <use x="728.193359" xlink:href="#DejaVuSans-100"/>
      <use x="791.669922" xlink:href="#DejaVuSans-97"/>
      <use x="852.949219" xlink:href="#DejaVuSans-116"/>
      <use x="892.158203" xlink:href="#DejaVuSans-97"/>
     </g>
    </g>
   </g>
   <g id="PolyCollection_1">
    <path clip-path="url(#p9691cd9385)" d="M 73.660057 241.518863 
L 73.660057 241.58175 
L 75.720476 241.58175 
L 77.780895 241.58175 
L 79.841314 241.58175 
L 81.901733 241.58175 
L 83.962152 241.58175 
L 86.022572 241.58175 
L 88.082991 241.58175 
L 90.14341 241.58175 
L 92.203829 241.58175 
L 94.264248 241.58175 
L 96.324667 241.58175 
L 98.385086 241.58175 
L 100.445505 241.58175 
L 102.505924 241.58175 
L 104.566344 241.58175 
L 106.626763 241.58175 
L 108.687182 241.58175 
L 110.747601 241.58175 
L 112.80802 241.58175 
L 114.868439 241.58175 
L 116.928858 241.58175 
L 118.989277 241.58175 
L 121.049697 241.58175 
L 123.110116 241.58175 
L 125.170535 241.58175 
L 127.230954 241.58175 
L 129.291373 241.58175 
L 131.351792 241.58175 
L 133.412211 241.58175 
L 135.47263 241.58175 
L 137.533049 241.58175 
L 139.593469 241.58175 
L 141.653888 241.58175 
L 143.714307 241.58175 
L 145.774726 241.58175 
L 147.835145 241.58175 
L 149.895564 241.58175 
L 151.955983 241.58175 
L 154.016402 241.58175 
L 156.076822 241.58175 
L 158.137241 241.58175 
L 160.19766 241.58175 
L 162.258079 241.58175 
L 164.318498 241.58175 
L 166.378917 241.58175 
L 168.439336 241.58175 
L 170.499755 241.58175 
L 172.560175 241.58175 
L 174.620594 241.58175 
L 176.681013 241.58175 
L 178.741432 241.58175 
L 180.801851 241.58175 
L 182.86227 241.58175 
L 184.922689 241.58175 
L 186.983108 241.58175 
L 189.043527 241.58175 
L 191.103947 241.58175 
L 193.164366 241.58175 
L 195.224785 241.58175 
L 197.285204 241.58175 
L 199.345623 241.58175 
L 201.406042 241.58175 
L 203.466461 241.58175 
L 205.52688 241.58175 
L 207.5873 241.58175 
L 209.647719 241.58175 
L 211.708138 241.58175 
L 213.768557 241.58175 
L 215.828976 241.58175 
L 217.889395 241.58175 
L 219.949814 241.58175 
L 222.010233 241.58175 
L 224.070652 241.58175 
L 226.131072 241.58175 
L 228.191491 241.58175 
L 230.25191 241.58175 
L 232.312329 241.58175 
L 234.372748 241.58175 
L 236.433167 241.58175 
L 238.493586 241.58175 
L 240.554005 241.58175 
L 242.614425 241.58175 
L 244.674844 241.58175 
L 246.735263 241.58175 
L 248.795682 241.58175 
L 250.856101 241.58175 
L 252.91652 241.58175 
L 254.976939 241.58175 
L 257.037358 241.58175 
L 259.097777 241.58175 
L 261.158197 241.58175 
L 263.218616 241.58175 
L 265.279035 241.58175 
L 267.339454 241.58175 
L 269.399873 241.58175 
L 271.460292 241.58175 
L 273.520711 241.58175 
L 275.58113 241.58175 
L 277.64155 241.58175 
L 279.701969 241.58175 
L 281.762388 241.58175 
L 283.822807 241.58175 
L 285.883226 241.58175 
L 287.943645 241.58175 
L 290.004064 241.58175 
L 292.064483 241.58175 
L 294.124903 241.58175 
L 296.185322 241.58175 
L 298.245741 241.58175 
L 300.30616 241.58175 
L 302.366579 241.58175 
L 304.426998 241.58175 
L 306.487417 241.58175 
L 308.547836 241.58175 
L 310.608255 241.58175 
L 312.668675 241.58175 
L 314.729094 241.58175 
L 316.789513 241.58175 
L 318.849932 241.58175 
L 320.910351 241.58175 
L 322.97077 241.58175 
L 325.031189 241.58175 
L 327.091608 241.58175 
L 329.152028 241.58175 
L 331.212447 241.58175 
L 333.272866 241.58175 
L 335.333285 241.58175 
L 335.333285 241.511941 
L 335.333285 241.511941 
L 333.272866 241.462061 
L 331.212447 241.351051 
L 329.152028 241.144052 
L 327.091608 240.788447 
L 325.031189 240.214385 
L 322.97077 239.338132 
L 320.910351 238.068213 
L 318.849932 236.312497 
L 316.789513 233.98294 
L 314.729094 230.99504 
L 312.668675 227.26191 
L 310.608255 222.687617 
L 308.547836 217.168343 
L 306.487417 210.609804 
L 304.426998 202.963291 
L 302.366579 194.272255 
L 300.30616 184.711883 
L 298.245741 174.601568 
L 296.185322 164.377849 
L 294.124903 154.530644 
L 292.064483 145.521014 
L 290.004064 137.706203 
L 287.943645 131.293547 
L 285.883226 126.3319 
L 283.822807 122.734722 
L 281.762388 120.320224 
L 279.701969 118.853742 
L 277.64155 118.083475 
L 275.58113 117.767876 
L 273.520711 117.696896 
L 271.460292 117.709034 
L 269.399873 117.703332 
L 267.339454 117.643144 
L 265.279035 117.548556 
L 263.218616 117.477019 
L 261.158197 117.495825 
L 259.097777 117.653626 
L 257.037358 117.95966 
L 254.976939 118.3777 
L 252.91652 118.837103 
L 250.856101 119.257068 
L 248.795682 119.574679 
L 246.735263 119.765249 
L 244.674844 119.846341 
L 242.614425 119.864 
L 240.554005 119.867914 
L 238.493586 119.887305 
L 236.433167 119.918504 
L 234.372748 119.928813 
L 232.312329 119.873003 
L 230.25191 119.713166 
L 228.191491 119.43246 
L 226.131072 119.037809 
L 224.070652 118.552719 
L 222.010233 118.005494 
L 219.949814 117.418696 
L 217.889395 116.803457 
L 215.828976 116.159283 
L 213.768557 115.477956 
L 211.708138 114.749478 
L 209.647719 113.968208 
L 207.5873 113.137572 
L 205.52688 112.271958 
L 203.466461 111.394893 
L 201.406042 110.533709 
L 199.345623 109.712378 
L 197.285204 108.945419 
L 195.224785 108.235722 
L 193.164366 107.577664 
L 191.103947 106.964439 
L 189.043527 106.396294 
L 186.983108 105.885592 
L 184.922689 105.455871 
L 182.86227 105.134855 
L 180.801851 104.944397 
L 178.741432 104.891986 
L 176.681013 104.967955 
L 174.620594 105.14993 
L 172.560175 105.412865 
L 170.499755 105.740652 
L 168.439336 106.134968 
L 166.378917 106.618759 
L 164.318498 107.234566 
L 162.258079 108.04043 
L 160.19766 109.107289 
L 158.137241 110.52087 
L 156.076822 112.388301 
L 154.016402 114.845664 
L 151.955983 118.059312 
L 149.895564 122.212855 
L 147.835145 127.475066 
L 145.774726 133.95145 
L 143.714307 141.631268 
L 141.653888 150.348285 
L 139.593469 159.773065 
L 137.533049 169.446069 
L 135.47263 178.846784 
L 133.412211 187.480708 
L 131.351792 194.959517 
L 129.291373 201.053054 
L 127.230954 205.703076 
L 125.170535 209.002175 
L 123.110116 211.15106 
L 121.049697 212.410232 
L 118.989277 213.058625 
L 116.928858 213.365198 
L 114.868439 213.573135 
L 112.80802 213.892338 
L 110.747601 214.494747 
L 108.687182 215.508268 
L 106.626763 217.008005 
L 104.566344 219.00688 
L 102.505924 221.450342 
L 100.445505 224.220315 
L 98.385086 227.151235 
L 96.324667 230.056736 
L 94.264248 232.761163 
L 92.203829 235.127737 
L 90.14341 237.076134 
L 88.082991 238.58598 
L 86.022572 239.687476 
L 83.962152 240.444052 
L 81.901733 240.933184 
L 79.841314 241.230398 
L 77.780895 241.398994 
L 75.720476 241.485462 
L 73.660057 241.518863 
z
" style="fill:#e24a33;fill-opacity:0.25;"/>
   </g>
   <g id="PolyCollection_2">
    <path clip-path="url(#p9691cd9385)" d="M 89.786963 241.141954 
L 89.786963 241.58175 
L 92.056543 241.58175 
L 94.326124 241.58175 
L 96.595704 241.58175 
L 98.865285 241.58175 
L 101.134865 241.58175 
L 103.404446 241.58175 
L 105.674027 241.58175 
L 107.943607 241.58175 
L 110.213188 241.58175 
L 112.482768 241.58175 
L 114.752349 241.58175 
L 117.021929 241.58175 
L 119.29151 241.58175 
L 121.56109 241.58175 
L 123.830671 241.58175 
L 126.100252 241.58175 
L 128.369832 241.58175 
L 130.639413 241.58175 
L 132.908993 241.58175 
L 135.178574 241.58175 
L 137.448154 241.58175 
L 139.717735 241.58175 
L 141.987315 241.58175 
L 144.256896 241.58175 
L 146.526477 241.58175 
L 148.796057 241.58175 
L 151.065638 241.58175 
L 153.335218 241.58175 
L 155.604799 241.58175 
L 157.874379 241.58175 
L 160.14396 241.58175 
L 162.41354 241.58175 
L 164.683121 241.58175 
L 166.952702 241.58175 
L 169.222282 241.58175 
L 171.491863 241.58175 
L 173.761443 241.58175 
L 176.031024 241.58175 
L 178.300604 241.58175 
L 180.570185 241.58175 
L 182.839765 241.58175 
L 185.109346 241.58175 
L 187.378927 241.58175 
L 189.648507 241.58175 
L 191.918088 241.58175 
L 194.187668 241.58175 
L 196.457249 241.58175 
L 198.726829 241.58175 
L 200.99641 241.58175 
L 203.26599 241.58175 
L 205.535571 241.58175 
L 207.805152 241.58175 
L 210.074732 241.58175 
L 212.344313 241.58175 
L 214.613893 241.58175 
L 216.883474 241.58175 
L 219.153054 241.58175 
L 221.422635 241.58175 
L 223.692215 241.58175 
L 225.961796 241.58175 
L 228.231377 241.58175 
L 230.500957 241.58175 
L 232.770538 241.58175 
L 235.040118 241.58175 
L 237.309699 241.58175 
L 239.579279 241.58175 
L 241.84886 241.58175 
L 244.11844 241.58175 
L 246.388021 241.58175 
L 248.657602 241.58175 
L 250.927182 241.58175 
L 253.196763 241.58175 
L 255.466343 241.58175 
L 257.735924 241.58175 
L 260.005504 241.58175 
L 262.275085 241.58175 
L 264.544665 241.58175 
L 266.814246 241.58175 
L 269.083827 241.58175 
L 271.353407 241.58175 
L 273.622988 241.58175 
L 275.892568 241.58175 
L 278.162149 241.58175 
L 280.431729 241.58175 
L 282.70131 241.58175 
L 284.97089 241.58175 
L 287.240471 241.58175 
L 289.510052 241.58175 
L 291.779632 241.58175 
L 294.049213 241.58175 
L 296.318793 241.58175 
L 298.588374 241.58175 
L 300.857954 241.58175 
L 303.127535 241.58175 
L 305.397115 241.58175 
L 307.666696 241.58175 
L 309.936277 241.58175 
L 312.205857 241.58175 
L 314.475438 241.58175 
L 316.745018 241.58175 
L 319.014599 241.58175 
L 321.284179 241.58175 
L 323.55376 241.58175 
L 325.82334 241.58175 
L 328.092921 241.58175 
L 330.362502 241.58175 
L 332.632082 241.58175 
L 334.901663 241.58175 
L 337.171243 241.58175 
L 339.440824 241.58175 
L 341.710404 241.58175 
L 343.979985 241.58175 
L 346.249565 241.58175 
L 348.519146 241.58175 
L 350.788727 241.58175 
L 353.058307 241.58175 
L 355.327888 241.58175 
L 357.597468 241.58175 
L 359.867049 241.58175 
L 362.136629 241.58175 
L 364.40621 241.58175 
L 366.67579 241.58175 
L 368.945371 241.58175 
L 371.214952 241.58175 
L 373.484532 241.58175 
L 375.754113 241.58175 
L 378.023693 241.58175 
L 378.023693 241.227597 
L 378.023693 241.227597 
L 375.754113 241.219122 
L 373.484532 241.120648 
L 371.214952 240.922732 
L 368.945371 240.603658 
L 366.67579 240.130572 
L 364.40621 239.460842 
L 362.136629 238.544015 
L 359.867049 237.324706 
L 357.597468 235.746578 
L 355.327888 233.757377 
L 353.058307 231.314698 
L 350.788727 228.391882 
L 348.519146 224.983252 
L 346.249565 221.107788 
L 343.979985 216.81044 
L 341.710404 212.160533 
L 339.440824 207.24713 
L 337.171243 202.171705 
L 334.901663 197.038979 
L 332.632082 191.947075 
L 330.362502 186.978339 
L 328.092921 182.19204 
L 325.82334 177.619881 
L 323.55376 173.264791 
L 321.284179 169.102951 
L 319.014599 165.088587 
L 316.745018 161.160753 
L 314.475438 157.251181 
L 312.205857 153.292315 
L 309.936277 149.224789 
L 307.666696 145.003832 
L 305.397115 140.604268 
L 303.127535 136.023987 
L 300.857954 131.285838 
L 298.588374 126.43799 
L 296.318793 121.552806 
L 294.049213 116.724312 
L 291.779632 112.064321 
L 289.510052 107.697366 
L 287.240471 103.754601 
L 284.97089 100.366963 
L 282.70131 97.657919 
L 280.431729 95.736257 
L 278.162149 94.689395 
L 275.892568 94.577729 
L 273.622988 95.430528 
L 271.353407 97.24381 
L 269.083827 99.98051 
L 266.814246 103.573095 
L 264.544665 107.928511 
L 262.275085 112.935106 
L 260.005504 118.4709 
L 257.735924 124.412318 
L 255.466343 130.642391 
L 253.196763 137.057411 
L 250.927182 143.571205 
L 248.657602 150.116534 
L 246.388021 156.643555 
L 244.11844 163.115801 
L 241.84886 169.504541 
L 239.579279 175.78269 
L 237.309699 181.919457 
L 235.040118 187.876769 
L 232.770538 193.608109 
L 230.500957 199.059893 
L 228.231377 204.174999 
L 225.961796 208.897637 
L 223.692215 213.178511 
L 221.422635 216.979186 
L 219.153054 220.27475 
L 216.883474 223.054188 
L 214.613893 225.31823 
L 212.344313 227.07487 
L 210.074732 228.333001 
L 207.805152 229.094884 
L 205.535571 229.348318 
L 203.26599 229.059454 
L 200.99641 228.167287 
L 198.726829 226.580854 
L 196.457249 224.180129 
L 194.187668 220.8214 
L 191.918088 216.347586 
L 189.648507 210.603351 
L 187.378927 203.454135 
L 185.109346 194.80742 
L 182.839765 184.633784 
L 180.570185 172.984849 
L 178.300604 160.005213 
L 176.031024 145.936006 
L 173.761443 131.108746 
L 171.491863 115.929657 
L 169.222282 100.856072 
L 166.952702 86.367881 
L 164.683121 72.937706 
L 162.41354 61.003505 
L 160.14396 50.946593 
L 157.874379 43.076778 
L 155.604799 37.624771 
L 153.335218 34.740621 
L 151.065638 34.496036 
L 148.796057 36.888178 
L 146.526477 41.843063 
L 144.256896 49.217659 
L 141.987315 58.801076 
L 139.717735 70.316259 
L 137.448154 83.424206 
L 135.178574 97.732655 
L 132.908993 112.810391 
L 130.639413 128.207161 
L 128.369832 143.477774 
L 126.100252 158.20785 
L 123.830671 172.038029 
L 121.56109 184.68351 
L 119.29151 195.946449 
L 117.021929 205.719913 
L 114.752349 213.983448 
L 112.482768 220.791529 
L 110.213188 226.257073 
L 107.943607 230.532604 
L 105.674027 233.791558 
L 103.404446 236.21175 
L 101.134865 237.962308 
L 98.865285 239.194618 
L 96.595704 240.037136 
L 94.326124 240.593472 
L 92.056543 240.942836 
L 89.786963 241.141954 
z
" style="fill:#348abd;fill-opacity:0.25;"/>
   </g>
   <g id="line2d_25">
    <path clip-path="url(#p9691cd9385)" d="M 73.660057 241.518863 
L 77.780895 241.398994 
L 79.841314 241.230398 
L 81.901733 240.933184 
L 83.962152 240.444052 
L 86.022572 239.687476 
L 88.082991 238.58598 
L 90.14341 237.076134 
L 92.203829 235.127737 
L 94.264248 232.761163 
L 96.324667 230.056736 
L 102.505924 221.450342 
L 104.566344 219.00688 
L 106.626763 217.008005 
L 108.687182 215.508268 
L 110.747601 214.494747 
L 112.80802 213.892338 
L 116.928858 213.365198 
L 118.989277 213.058625 
L 121.049697 212.410232 
L 123.110116 211.15106 
L 125.170535 209.002175 
L 127.230954 205.703076 
L 129.291373 201.053054 
L 131.351792 194.959517 
L 133.412211 187.480708 
L 135.47263 178.846784 
L 143.714307 141.631268 
L 145.774726 133.95145 
L 147.835145 127.475066 
L 149.895564 122.212855 
L 151.955983 118.059312 
L 154.016402 114.845664 
L 156.076822 112.388301 
L 158.137241 110.52087 
L 160.19766 109.107289 
L 162.258079 108.04043 
L 164.318498 107.234566 
L 166.378917 106.618759 
L 170.499755 105.740652 
L 174.620594 105.14993 
L 178.741432 104.891986 
L 180.801851 104.944397 
L 182.86227 105.134855 
L 186.983108 105.885592 
L 191.103947 106.964439 
L 195.224785 108.235722 
L 199.345623 109.712378 
L 205.52688 112.271958 
L 211.708138 114.749478 
L 215.828976 116.159283 
L 222.010233 118.005494 
L 226.131072 119.037809 
L 228.191491 119.43246 
L 230.25191 119.713166 
L 234.372748 119.928813 
L 246.735263 119.765249 
L 248.795682 119.574679 
L 252.91652 118.837103 
L 257.037358 117.95966 
L 259.097777 117.653626 
L 261.158197 117.495825 
L 265.279035 117.548556 
L 269.399873 117.703332 
L 275.58113 117.767876 
L 277.64155 118.083475 
L 279.701969 118.853742 
L 281.762388 120.320224 
L 283.822807 122.734722 
L 285.883226 126.3319 
L 287.943645 131.293547 
L 290.004064 137.706203 
L 292.064483 145.521014 
L 294.124903 154.530644 
L 298.245741 174.601568 
L 302.366579 194.272255 
L 304.426998 202.963291 
L 306.487417 210.609804 
L 308.547836 217.168343 
L 310.608255 222.687617 
L 312.668675 227.26191 
L 314.729094 230.99504 
L 316.789513 233.98294 
L 318.849932 236.312497 
L 320.910351 238.068213 
L 322.97077 239.338132 
L 325.031189 240.214385 
L 327.091608 240.788447 
L 329.152028 241.144052 
L 333.272866 241.462061 
L 335.333285 241.511941 
L 335.333285 241.511941 
" style="fill:none;stroke:#e24a33;stroke-linecap:square;stroke-width:1.5;"/>
   </g>
   <g id="line2d_26">
    <path clip-path="url(#p9691cd9385)" d="M 89.786963 241.141954 
L 92.056543 240.942836 
L 94.326124 240.593472 
L 96.595704 240.037136 
L 98.865285 239.194618 
L 101.134865 237.962308 
L 103.404446 236.21175 
L 105.674027 233.791558 
L 107.943607 230.532604 
L 110.213188 226.257073 
L 112.482768 220.791529 
L 114.752349 213.983448 
L 117.021929 205.719913 
L 119.29151 195.946449 
L 121.56109 184.68351 
L 123.830671 172.038029 
L 126.100252 158.20785 
L 130.639413 128.207161 
L 135.178574 97.732655 
L 137.448154 83.424206 
L 139.717735 70.316259 
L 141.987315 58.801076 
L 144.256896 49.217659 
L 146.526477 41.843063 
L 148.796057 36.888178 
L 151.065638 34.496036 
L 153.335218 34.740621 
L 155.604799 37.624771 
L 157.874379 43.076778 
L 160.14396 50.946593 
L 162.41354 61.003505 
L 164.683121 72.937706 
L 166.952702 86.367881 
L 171.491863 115.929657 
L 176.031024 145.936006 
L 178.300604 160.005213 
L 180.570185 172.984849 
L 182.839765 184.633784 
L 185.109346 194.80742 
L 187.378927 203.454135 
L 189.648507 210.603351 
L 191.918088 216.347586 
L 194.187668 220.8214 
L 196.457249 224.180129 
L 198.726829 226.580854 
L 200.99641 228.167287 
L 203.26599 229.059454 
L 205.535571 229.348318 
L 207.805152 229.094884 
L 210.074732 228.333001 
L 212.344313 227.07487 
L 214.613893 225.31823 
L 216.883474 223.054188 
L 219.153054 220.27475 
L 221.422635 216.979186 
L 223.692215 213.178511 
L 225.961796 208.897637 
L 228.231377 204.174999 
L 230.500957 199.059893 
L 235.040118 187.876769 
L 239.579279 175.78269 
L 246.388021 156.643555 
L 255.466343 130.642391 
L 260.005504 118.4709 
L 262.275085 112.935106 
L 264.544665 107.928511 
L 266.814246 103.573095 
L 269.083827 99.98051 
L 271.353407 97.24381 
L 273.622988 95.430528 
L 275.892568 94.577729 
L 278.162149 94.689395 
L 280.431729 95.736257 
L 282.70131 97.657919 
L 284.97089 100.366963 
L 287.240471 103.754601 
L 289.510052 107.697366 
L 291.779632 112.064321 
L 296.318793 121.552806 
L 303.127535 136.023987 
L 307.666696 145.003832 
L 312.205857 153.292315 
L 323.55376 173.264791 
L 328.092921 182.19204 
L 332.632082 191.947075 
L 341.710404 212.160533 
L 343.979985 216.81044 
L 346.249565 221.107788 
L 348.519146 224.983252 
L 350.788727 228.391882 
L 353.058307 231.314698 
L 355.327888 233.757377 
L 357.597468 235.746578 
L 359.867049 237.324706 
L 362.136629 238.544015 
L 364.40621 239.460842 
L 366.67579 240.130572 
L 368.945371 240.603658 
L 371.214952 240.922732 
L 375.754113 241.219122 
L 378.023693 241.227597 
L 378.023693 241.227597 
" style="fill:none;stroke:#348abd;stroke-linecap:square;stroke-width:1.5;"/>
   </g>
   <g id="patch_3">
    <path d="M 58.441875 241.58175 
L 58.441875 24.14175 
" style="fill:none;stroke:#ffffff;stroke-linecap:square;stroke-linejoin:miter;"/>
   </g>
   <g id="patch_4">
    <path d="M 393.241875 241.58175 
L 393.241875 24.14175 
" style="fill:none;stroke:#ffffff;stroke-linecap:square;stroke-linejoin:miter;"/>
   </g>
   <g id="patch_5">
    <path d="M 58.441875 241.58175 
L 393.241875 241.58175 
" style="fill:none;stroke:#ffffff;stroke-linecap:square;stroke-linejoin:miter;"/>
   </g>
   <g id="patch_6">
    <path d="M 58.441875 24.14175 
L 393.241875 24.14175 
" style="fill:none;stroke:#ffffff;stroke-linecap:square;stroke-linejoin:miter;"/>
   </g>
   <g id="text_15">
    <!-- Most who remain work ~40 hours a week -->
    <defs>
     <path d="M 9.8125 72.90625 
L 24.515625 72.90625 
L 43.109375 23.296875 
L 61.8125 72.90625 
L 76.515625 72.90625 
L 76.515625 0 
L 66.890625 0 
L 66.890625 64.015625 
L 48.09375 14.015625 
L 38.1875 14.015625 
L 19.390625 64.015625 
L 19.390625 0 
L 9.8125 0 
z
" id="DejaVuSans-77"/>
     <path d="M 9.421875 54.6875 
L 18.40625 54.6875 
L 18.40625 0 
L 9.421875 0 
z
M 9.421875 75.984375 
L 18.40625 75.984375 
L 18.40625 64.59375 
L 9.421875 64.59375 
z
" id="DejaVuSans-105"/>
     <path d="M 73.1875 39.890625 
L 73.1875 31.203125 
Q 68.0625 27.34375 63.6875 25.6875 
Q 59.328125 24.03125 54.59375 24.03125 
Q 49.21875 24.03125 42.09375 26.90625 
Q 41.546875 27.09375 41.3125 27.203125 
Q 40.96875 27.34375 40.234375 27.59375 
Q 32.671875 30.609375 28.078125 30.609375 
Q 23.78125 30.609375 19.578125 28.734375 
Q 15.375 26.859375 10.59375 22.796875 
L 10.59375 31.5 
Q 15.71875 35.359375 20.09375 37.03125 
Q 24.46875 38.71875 29.203125 38.71875 
Q 34.578125 38.71875 41.75 35.796875 
Q 42.234375 35.59375 42.484375 35.5 
Q 42.875 35.359375 43.5625 35.109375 
Q 51.125 32.078125 55.71875 32.078125 
Q 59.90625 32.078125 64.03125 33.9375 
Q 68.171875 35.796875 73.1875 39.890625 
z
" id="DejaVuSans-126"/>
    </defs>
    <g transform="translate(58.441875 18.14175)scale(0.144 -0.144)">
     <use xlink:href="#DejaVuSans-77"/>
     <use x="86.279297" xlink:href="#DejaVuSans-111"/>
     <use x="147.460938" xlink:href="#DejaVuSans-115"/>
     <use x="199.560547" xlink:href="#DejaVuSans-116"/>
     <use x="238.769531" xlink:href="#DejaVuSans-32"/>
     <use x="270.556641" xlink:href="#DejaVuSans-119"/>
     <use x="352.34375" xlink:href="#DejaVuSans-104"/>
     <use x="415.722656" xlink:href="#DejaVuSans-111"/>
     <use x="476.904297" xlink:href="#DejaVuSans-32"/>
     <use x="508.691406" xlink:href="#DejaVuSans-114"/>
     <use x="549.773438" xlink:href="#DejaVuSans-101"/>
     <use x="611.296875" xlink:href="#DejaVuSans-109"/>
     <use x="708.708984" xlink:href="#DejaVuSans-97"/>
     <use x="769.988281" xlink:href="#DejaVuSans-105"/>
     <use x="797.771484" xlink:href="#DejaVuSans-110"/>
     <use x="861.150391" xlink:href="#DejaVuSans-32"/>
     <use x="892.9375" xlink:href="#DejaVuSans-119"/>
     <use x="974.724609" xlink:href="#DejaVuSans-111"/>
     <use x="1035.90625" xlink:href="#DejaVuSans-114"/>
     <use x="1077.019531" xlink:href="#DejaVuSans-107"/>
     <use x="1134.929688" xlink:href="#DejaVuSans-32"/>
     <use x="1166.716797" xlink:href="#DejaVuSans-126"/>
     <use x="1250.505859" xlink:href="#DejaVuSans-52"/>
     <use x="1314.128906" xlink:href="#DejaVuSans-48"/>
     <use x="1377.751953" xlink:href="#DejaVuSans-32"/>
     <use x="1409.539062" xlink:href="#DejaVuSans-104"/>
     <use x="1472.917969" xlink:href="#DejaVuSans-111"/>
     <use x="1534.099609" xlink:href="#DejaVuSans-117"/>
     <use x="1597.478516" xlink:href="#DejaVuSans-114"/>
     <use x="1638.591797" xlink:href="#DejaVuSans-115"/>
     <use x="1690.691406" xlink:href="#DejaVuSans-32"/>
     <use x="1722.478516" xlink:href="#DejaVuSans-97"/>
     <use x="1783.757812" xlink:href="#DejaVuSans-32"/>
     <use x="1815.544922" xlink:href="#DejaVuSans-119"/>
     <use x="1897.332031" xlink:href="#DejaVuSans-101"/>
     <use x="1958.855469" xlink:href="#DejaVuSans-101"/>
     <use x="2020.378906" xlink:href="#DejaVuSans-107"/>
    </g>
   </g>
   <g id="legend_1">
    <g id="patch_7">
     <path d="M 311.635625 61.498 
L 386.241875 61.498 
Q 388.241875 61.498 388.241875 59.498 
L 388.241875 31.14175 
Q 388.241875 29.14175 386.241875 29.14175 
L 311.635625 29.14175 
Q 309.635625 29.14175 309.635625 31.14175 
L 309.635625 59.498 
Q 309.635625 61.498 311.635625 61.498 
z
" style="fill:#e5e5e5;opacity:0.8;stroke:#cccccc;stroke-linejoin:miter;stroke-width:0.5;"/>
    </g>
    <g id="line2d_27">
     <path d="M 313.635625 37.240187 
L 333.635625 37.240187 
" style="fill:none;stroke:#e24a33;stroke-linecap:square;stroke-width:1.5;"/>
    </g>
    <g id="line2d_28"/>
    <g id="text_16">
     <!-- Remain -->
     <defs>
      <path d="M 44.390625 34.1875 
Q 47.5625 33.109375 50.5625 29.59375 
Q 53.5625 26.078125 56.59375 19.921875 
L 66.609375 0 
L 56 0 
L 46.6875 18.703125 
Q 43.0625 26.03125 39.671875 28.421875 
Q 36.28125 30.8125 30.421875 30.8125 
L 19.671875 30.8125 
L 19.671875 0 
L 9.8125 0 
L 9.8125 72.90625 
L 32.078125 72.90625 
Q 44.578125 72.90625 50.734375 67.671875 
Q 56.890625 62.453125 56.890625 51.90625 
Q 56.890625 45.015625 53.6875 40.46875 
Q 50.484375 35.9375 44.390625 34.1875 
z
M 19.671875 64.796875 
L 19.671875 38.921875 
L 32.078125 38.921875 
Q 39.203125 38.921875 42.84375 42.21875 
Q 46.484375 45.515625 46.484375 51.90625 
Q 46.484375 58.296875 42.84375 61.546875 
Q 39.203125 64.796875 32.078125 64.796875 
z
" id="DejaVuSans-82"/>
     </defs>
     <g transform="translate(341.635625 40.740187)scale(0.1 -0.1)">
      <use xlink:href="#DejaVuSans-82"/>
      <use x="69.419922" xlink:href="#DejaVuSans-101"/>
      <use x="130.943359" xlink:href="#DejaVuSans-109"/>
      <use x="228.355469" xlink:href="#DejaVuSans-97"/>
      <use x="289.634766" xlink:href="#DejaVuSans-105"/>
      <use x="317.417969" xlink:href="#DejaVuSans-110"/>
     </g>
    </g>
    <g id="line2d_29">
     <path d="M 313.635625 51.918312 
L 333.635625 51.918312 
" style="fill:none;stroke:#348abd;stroke-linecap:square;stroke-width:1.5;"/>
    </g>
    <g id="line2d_30"/>
    <g id="text_17">
     <!-- Churned -->
     <defs>
      <path d="M 64.40625 67.28125 
L 64.40625 56.890625 
Q 59.421875 61.53125 53.78125 63.8125 
Q 48.140625 66.109375 41.796875 66.109375 
Q 29.296875 66.109375 22.65625 58.46875 
Q 16.015625 50.828125 16.015625 36.375 
Q 16.015625 21.96875 22.65625 14.328125 
Q 29.296875 6.6875 41.796875 6.6875 
Q 48.140625 6.6875 53.78125 8.984375 
Q 59.421875 11.28125 64.40625 15.921875 
L 64.40625 5.609375 
Q 59.234375 2.09375 53.4375 0.328125 
Q 47.65625 -1.421875 41.21875 -1.421875 
Q 24.65625 -1.421875 15.125 8.703125 
Q 5.609375 18.84375 5.609375 36.375 
Q 5.609375 53.953125 15.125 64.078125 
Q 24.65625 74.21875 41.21875 74.21875 
Q 47.75 74.21875 53.53125 72.484375 
Q 59.328125 70.75 64.40625 67.28125 
z
" id="DejaVuSans-67"/>
     </defs>
     <g transform="translate(341.635625 55.418312)scale(0.1 -0.1)">
      <use xlink:href="#DejaVuSans-67"/>
      <use x="69.824219" xlink:href="#DejaVuSans-104"/>
      <use x="133.203125" xlink:href="#DejaVuSans-117"/>
      <use x="196.582031" xlink:href="#DejaVuSans-114"/>
      <use x="237.679688" xlink:href="#DejaVuSans-110"/>
      <use x="301.058594" xlink:href="#DejaVuSans-101"/>
      <use x="362.582031" xlink:href="#DejaVuSans-100"/>
     </g>
    </g>
   </g>
  </g>
 </g>
 <defs>
  <clipPath id="p9691cd9385">
   <rect height="217.44" width="334.8" x="58.441875" y="24.14175"/>
  </clipPath>
 </defs>
</svg>
